<?xml version="1.0" encoding="UTF-8"?> <svg xmlns="http://www.w3.org/2000/svg" width="78" height="77" viewBox="0 0 78 77" fill="none"><path d="M75.7019 75.1982C74.7424 75.1537 73.0899 75.15 71.5234 75.1426C72.7296 75.1871 74.0101 75.2056 75.7019 75.1982Z" fill="#2C282F"></path><g clip-path="url(#clip0_65_166)"><path d="M34.098 75.8963L33.3613 75.8398C33.3754 75.8634 33.5584 75.8869 34.098 75.8963Z" fill="#2C282F"></path><path d="M75.7559 15.4414C75.7559 15.4979 75.7652 15.5638 75.7699 15.6156C75.7699 15.4932 75.7606 15.4508 75.7559 15.4414Z" fill="#2C282F"></path><path d="M5.43359 74.0512H5.47113C5.53212 74.0512 5.60719 74.0418 5.66349 74.0371L5.43359 74.0512Z" fill="#2C282F"></path><path d="M43.053 74.2009C33.1813 74.135 30.5633 73.8807 20.3303 73.9843C15.4508 73.9655 10.2428 74.022 5.47119 74.0549C5.31167 74.0643 5.14745 74.0785 4.97854 74.0926C4.89409 74.0926 4.80495 74.102 4.7158 74.1067C4.63604 74.1067 4.49998 74.1161 4.51874 74.1208C4.46244 74.135 4.39206 74.1444 4.31699 74.1491C4.31699 74.1067 4.31699 74.0596 4.3123 74.0126C4.3123 73.8525 4.3123 73.6877 4.3123 73.5229C4.3123 72.9391 4.3123 72.3459 4.3123 71.7621C4.3123 70.5898 4.29823 69.4458 4.23723 68.4713L4.34984 67.4308C4.29353 66.5033 4.256 65.4158 4.31699 64.4836L4.34984 64.5401C4.26538 63.156 4.31699 61.5929 4.27477 60.9055L4.30761 60.962L4.29353 59.2813L4.34045 59.5685C4.25131 57.1533 4.24192 54.6675 4.28415 52.4783L4.14809 52.6619C4.29823 47.9774 4.01671 46.2637 4.1997 42.0313L4.23254 42.0878C3.87127 36.7395 4.47652 33.6369 4.13401 28.1239C4.17624 28.8113 4.20439 27.8273 4.23723 27.8838C4.1997 25.3462 4.17624 22.6344 3.9088 22.5967C3.9088 20.7465 3.99325 21.0902 4.09648 20.8501C3.97918 20.8595 3.93226 19.2541 3.92288 17.8087L3.96979 18.4725L3.93226 14.3342L3.71174 15.1487C3.77743 12.9548 3.98387 14.5932 3.92757 12.4887L3.74459 12.5169C3.78212 9.4803 4.05894 7.70068 4.195 4.7629C4.195 4.54633 4.1997 4.33447 4.20439 4.1132C5.35389 4.1132 6.51278 4.1132 7.67636 4.10849C9.15899 4.09908 10.6463 4.08495 12.1383 4.07554C15.1177 4.04258 18.1111 4.00962 21.0716 3.97667C26.9974 3.91546 32.8153 3.88722 38.2297 4.04258L38.7271 4.17911C38.9429 4.38155 41.8519 3.88251 42.2835 4.06612L43.6019 3.97196C43.9726 4.00962 44.7514 4.04729 44.0946 4.09437C45.3145 4.10378 45.3426 4.07083 46.22 4.00962L47.529 4.13674C52.3335 4.23561 56.4201 3.99079 61.4732 4.04258C63.1904 4.1132 65.3346 4.14616 67.6759 4.15557C68.8441 4.15557 70.064 4.15557 71.3074 4.15086C71.9267 4.14616 72.5507 4.14145 73.1794 4.13674H73.6486L73.8691 4.12732L74.1225 4.11791C74.1929 7.64418 74.2585 11.0998 74.3101 13.7175C74.6104 23.0063 73.8081 33.8111 74.1553 43.326C74.1272 43.6367 74.1929 44.437 74.2116 44.4323L74.1835 53.1374C74.1835 53.1374 74.1084 95.3491 75.774 63.2784L75.8162 63.4949C75.9241 58.7305 75.9476 55.7315 75.7271 52.4453C75.9992 51.9274 75.7552 48.533 75.8444 47.4172L75.8678 47.5208C75.6614 44.6159 76.0414 41.5322 75.8538 38.731C75.8772 38.8392 75.9476 38.9005 75.9523 39.5454C75.9195 37.5022 75.8585 34.7104 76.0133 34.5597C75.9711 29.6822 76.0461 22.8792 75.7928 19.7531L75.835 19.965C75.6661 18.1853 75.8115 17.6628 75.7224 15.6713C75.7412 15.563 75.7552 15.4218 75.7599 15.4453C75.591 13.5056 75.7318 9.78631 75.6614 8.21856L75.7646 8.11498L75.7412 4.14616L75.7177 5.69979C75.6332 5.55384 75.6145 5.24782 75.6239 4.81469C75.6473 4.21207 75.6755 3.42583 75.7036 2.5219C75.3611 2.51249 74.9999 2.50307 74.6292 2.48895C74.282 2.48424 73.9207 2.47482 73.5548 2.47012C73.0199 2.46541 72.4522 2.47482 71.8704 2.51249C69.257 2.47482 66.5733 3.1104 63.8614 2.96916C62.5664 3.10569 65.0015 2.74789 63.0685 2.85146C63.0075 2.70081 63.9693 2.7573 63.472 2.6396C61.5718 2.71022 60.3566 2.48424 58.0153 2.58781L57.9215 2.47012C54.8671 2.68197 52.1552 2.31475 50.1236 2.5219C46.9754 2.62077 48.0123 2.17351 44.728 2.4042L43.4518 2.24413C42.0489 2.22059 42.4477 2.43716 40.89 2.36183C40.9839 2.26296 38.9241 2.2818 39.8344 2.18764C36.3108 2.03227 32.684 2.40891 28.0437 2.14526C27.035 2.33829 24.6984 2.2253 23.9477 2.37125C23.8211 2.2865 19.2653 2.35712 21.888 2.17351C22.1132 2.15939 22.512 2.15939 22.4839 2.19234L22.7982 2.07935C20.152 1.86279 17.9891 2.19705 15.371 2.1641C16.1452 2.20176 17.1821 2.19234 16.4877 2.27238L14.0573 2.25826L14.564 2.15939L10.9372 2.10289L11.4345 2.22059C9.66102 2.15939 9.037 1.95695 7.03827 2.12643C6.13274 2.22059 8.71796 2.2865 6.8459 2.32417C6.33918 2.30534 5.77147 2.2865 5.17091 2.26767C4.80025 2.25826 4.41552 2.24884 4.02141 2.23942C3.45838 2.23001 2.88128 2.22059 2.2948 2.21118C2.25727 4.26386 2.21035 6.50956 2.17281 8.55282C2.30888 8.27034 2.30419 9.08483 2.32764 9.92755L2.21035 10.0264C2.37456 13.2514 1.9523 11.2081 2.08367 14.4048L2.00391 14.1224L2.24788 14.9651C2.47778 17.8511 2.00391 16.5234 2.32295 19.7296C2.30419 18.4631 2.581 19.1316 2.52939 20.6947L2.41679 20.2992C2.44025 21.1655 2.48717 21.4527 2.46371 22.0271C2.40271 21.5139 2.29949 21.754 2.31826 23.0251L2.17751 22.173L2.38395 24.5741C2.26196 26.429 2.41679 29.3668 2.25727 30.1248C2.25727 30.1248 2.17751 34.1124 2.3558 35.0258C2.24788 34.2254 2.20566 36.4241 2.07898 35.7979C2.20096 36.8289 2.29949 39.8797 2.17281 41.1038L2.15874 40.8731C2.02737 45.388 2.34172 48.5989 2.17751 52.6525C2.31357 52.4688 2.2385 54.611 2.4121 54.079C2.5857 58.2738 2.06021 61.7247 2.59508 63.2407C2.62323 65.1474 2.4684 65.5005 2.44025 66.4892L2.4121 66.0325C2.45432 69.6059 2.45902 70.6463 2.44963 73.3016C2.45902 73.5041 2.4684 73.6783 2.48717 73.8431C2.50594 74.0738 2.5247 74.2856 2.53878 74.4928C2.57631 74.9353 2.61854 75.3355 2.65138 75.8345C3.00796 75.8157 3.40208 75.7969 3.86657 75.7922C4.09178 75.7922 4.33107 75.7922 4.5985 75.7875C4.79087 75.7875 5.002 75.7922 5.2319 75.7969C4.46713 75.8957 5.43366 75.8769 6.32042 75.8769C5.7527 75.891 5.5791 75.9287 6.74268 75.9946C6.9069 75.9617 7.16026 75.9428 7.39485 75.9287C7.40424 75.9381 7.45115 75.9428 7.42769 75.9522C8.90563 75.9193 8.64758 75.8863 7.96257 75.8722C7.99541 75.8581 7.93911 75.8392 7.72797 75.811C9.26221 75.9381 12.0023 75.8016 12.1899 75.9711C16.6331 75.9334 19.8095 75.7545 23.5067 75.6886C23.9243 75.778 23.0563 75.8534 21.9865 75.8863L24.6093 75.8534C24.5858 75.9805 23.1032 75.924 22.2962 75.9522C25.421 76.1547 28.7334 75.7498 32.3978 75.9334L33.1578 75.8345L33.3784 75.8534C33.369 75.8016 34.1901 75.731 34.7296 75.7121C35.2457 75.8204 34.6921 75.9664 36.5078 75.9569C37.9435 76.0652 40.5804 75.9052 42.4571 75.844C41.4437 75.8251 41.7721 75.7639 42.2084 75.7263C43.114 75.7263 43.6348 75.8345 44.3385 75.7828L44.4277 75.9334C44.0711 75.7922 46.7971 75.7828 47.1302 75.7215C47.6463 75.8298 45.7226 75.8157 45.4974 75.9005C49.1336 75.8863 47.3132 75.8957 50.9494 75.8816C52.8871 75.7686 50.5975 75.7404 51.5265 75.6133C53.239 75.585 54.9093 75.4814 56.8752 75.5709L56.2512 75.4391C59.4698 75.3355 61.3935 75.3543 63.5611 75.4861C87.5271 74.4127 68.6095 74.022 68.6095 74.022C59.1742 73.7301 54.3041 74.1161 43.0717 74.215L43.053 74.2009Z" fill="#2C282F"></path><path d="M52.3478 28.3327H46.241V27.1113C46.241 26.144 45.8501 25.206 45.1662 24.5221C44.4822 23.8381 43.5442 23.4473 42.5769 23.4473H35.2487C34.2814 23.4473 33.3434 23.8381 32.6595 24.5221C31.9755 25.206 31.5847 26.144 31.5847 27.1113V28.3327H25.4779C24.833 28.3327 24.2077 28.5867 23.7484 29.046C23.2892 29.5052 23.0352 30.1208 23.0352 30.7754V50.3171C23.0352 50.962 23.2892 51.5874 23.7484 52.0466C24.2077 52.5058 24.8232 52.7599 25.4779 52.7599H52.3478C52.9926 52.7599 53.618 52.5058 54.0772 52.0466C54.5364 51.5874 54.7905 50.9718 54.7905 50.3171V30.7754C54.7905 30.1305 54.5364 29.5052 54.0772 29.046C53.618 28.5867 53.0024 28.3327 52.3478 28.3327ZM34.0274 27.1113C34.0274 26.7889 34.1544 26.4762 34.3889 26.2515C34.6136 26.0268 34.9263 25.89 35.2487 25.89H42.5769C42.8993 25.89 43.212 26.017 43.4367 26.2515C43.6615 26.4762 43.7983 26.7889 43.7983 27.1113V28.3327H34.0274V27.1113ZM52.3478 30.7754V37.1265C48.2245 39.3738 43.6028 40.5463 38.9128 40.5463C34.2228 40.5463 29.6012 39.3738 25.4779 37.1265V30.7754H52.3478ZM52.3478 50.3171H25.4779V39.8819C29.6598 41.924 34.2521 42.989 38.9128 42.989C43.5735 42.989 48.1658 41.924 52.3478 39.8819V50.3171ZM35.2487 36.8822C35.2487 36.5598 35.3758 36.2471 35.6103 36.0224C35.835 35.7976 36.1477 35.6608 36.4701 35.6608H41.3555C41.678 35.6608 41.9906 35.7879 42.2154 36.0224C42.4401 36.2471 42.5769 36.5598 42.5769 36.8822C42.5769 37.2046 42.4499 37.5173 42.2154 37.742C41.9906 37.9668 41.678 38.1036 41.3555 38.1036H36.4701C36.1477 38.1036 35.835 37.9765 35.6103 37.742C35.3855 37.5173 35.2487 37.2046 35.2487 36.8822Z" fill="#1C1A1F"></path><path d="M35.7168 36.8438C35.7168 36.8438 35.7461 36.7559 35.7657 36.707C35.7363 36.7363 35.7168 36.7852 35.7168 36.8438Z" fill="#1C1A1F"></path><path d="M34.7012 36.9805C34.7012 36.9805 34.7012 37.0489 34.7109 37.0879C34.7109 37.0586 34.7109 37.0391 34.7012 36.9805Z" fill="#1C1A1F"></path><path d="M39.1176 36.2291V36.19C39.3423 36.19 39.1958 36.2388 39.3814 36.2291C39.4596 36.1705 39.7038 36.2291 39.7722 36.2095C39.7722 36.2095 39.8699 36.2095 39.8602 36.2291C39.8895 36.1998 39.9579 36.2291 40.0165 36.2193C40.0361 36.2193 39.997 36.2193 39.9872 36.1998H40.124C40.1728 36.1998 40.1924 36.2193 40.124 36.2193C40.3194 36.2193 40.8373 36.2291 41.3454 36.2388C41.6482 36.2388 41.8534 36.4538 41.9023 36.5417C41.9023 36.5027 41.8534 36.4636 41.8632 36.4245C41.9218 36.4538 41.9121 36.4929 41.9414 36.5027C41.9121 36.5515 41.9902 36.6199 41.9511 36.6785H41.9805L41.9707 36.7176C42.0391 36.9423 42.0098 36.7665 42 36.9814C41.9805 37.0987 42 37.1768 41.9511 37.2355C41.9511 37.2355 41.9902 37.2062 41.9805 37.2355C41.9609 37.2355 41.9511 37.3234 41.9121 37.3234C41.8925 37.3527 41.8144 37.4309 41.8632 37.4309C41.8339 37.4309 41.7557 37.4895 41.7948 37.4309C41.7655 37.4504 41.7362 37.4602 41.7264 37.4797L41.7655 37.4602C41.6776 37.5286 41.6092 37.5188 41.5505 37.5775H41.5994C41.531 37.6068 41.4724 37.6165 41.4431 37.5775L41.5115 37.5579C41.4626 37.5677 41.4137 37.5775 41.3747 37.5775C41.3258 37.5775 41.2672 37.5775 41.1597 37.597H41.2183C41.0131 37.6361 39.9579 37.6654 39.7722 37.7045L39.8602 37.7338L39.7038 37.7533C39.7038 37.7533 39.782 37.6654 39.8016 37.6752C39.4596 37.6752 37.6813 37.6947 37.3588 37.6752C37.2318 37.6556 37.3393 37.6263 37.3393 37.6263C37.183 37.6361 37.2709 37.6556 37.1439 37.6556C37.1048 37.6556 37.1439 37.6361 37.1732 37.6263C37.1146 37.6263 37.0657 37.6263 37.0559 37.6263C37.1243 37.6361 37.095 37.6752 37.1243 37.6947H36.9582V37.6654C36.9192 37.6654 36.8605 37.724 36.6944 37.7142C36.5381 37.7142 36.4208 37.7142 36.3329 37.6947C36.2352 37.6752 36.1375 37.6361 36.0495 37.5872C36.0495 37.5872 36.0984 37.5872 36.1375 37.6068C36.1179 37.597 36.0789 37.5775 36.0691 37.5579C36.0984 37.6068 35.9909 37.5286 36.0202 37.5579C35.8639 37.5188 35.776 37.3332 35.6978 37.2355C35.6782 37.2355 35.4535 37.2648 35.2288 37.2159C35.0041 37.1769 34.7793 37.0596 34.75 37.0596C34.75 36.9814 34.75 36.8935 34.75 36.874C34.7402 36.8935 34.7305 37.0596 34.75 37.1378H34.7793C34.8282 37.3332 34.7696 37.1964 34.8184 37.382C34.7989 37.4016 34.7402 37.2355 34.7207 37.0694C34.7305 37.2062 34.75 37.3527 34.7989 37.4016C34.8282 37.5286 34.7598 37.4016 34.8086 37.5481C34.8575 37.6556 34.9552 37.7729 35.0138 37.8901C35.1897 38.1735 35.3656 38.2419 35.5903 38.408H35.561C35.6392 38.4666 35.8346 38.5448 36.0105 38.6034C35.9616 38.5839 35.9225 38.5545 36.03 38.5839C36.2254 38.6523 36.4013 38.6425 36.5185 38.662L36.6163 38.6425C37.1243 38.6425 39.1567 38.6132 39.6648 38.6132H39.6452C40.0458 38.6132 40.6321 38.6132 41.2379 38.6034C41.5505 38.6327 42.0684 38.5155 42.3518 38.281C42.6742 38.0562 42.8696 37.7436 42.9575 37.4797C43.0455 37.3234 43.0846 37.0791 43.0943 36.9033C43.0846 37.001 43.065 36.9717 43.065 36.8935C43.0162 36.3463 43.0846 36.8446 42.938 36.317C42.8598 36.0239 42.3615 35.3106 41.5799 35.2324C41.0425 35.2129 40.4953 35.2031 40.2217 35.1934C39.997 35.2324 39.7234 35.1934 39.5084 35.2227H39.528C39.186 35.2227 38.0721 35.2129 37.7106 35.2031H37.7497C37.5152 35.2324 37.5445 35.1934 37.3588 35.1836C37.3784 35.2227 37.183 35.2422 37.1048 35.252C36.9875 35.252 36.7237 35.2813 36.5381 35.2911V35.2715C36.372 35.2715 35.9518 35.3497 35.8248 35.4279C35.5024 35.5451 35.0431 35.9164 34.9357 36.3854C34.8868 36.4733 34.838 36.5711 34.8086 36.6688V36.7176C34.8086 36.7176 34.9845 36.8544 35.1897 36.8837C35.3949 36.9228 35.6196 36.8642 35.7173 36.7469H35.7369V36.6981C35.7662 36.6395 35.7564 36.6004 35.776 36.6101L35.7466 36.6981C35.7662 36.6297 35.7662 36.6883 35.776 36.7078C35.776 36.6785 35.7955 36.659 35.8053 36.6395C35.8053 36.6297 35.7955 36.6395 35.7857 36.6492C35.7857 36.6101 35.7857 36.5613 35.8248 36.5222C35.8639 36.4636 35.8541 36.532 35.903 36.4733C36.0202 36.317 36.2156 36.2193 36.4013 36.2095C36.7433 36.2095 37.0559 36.2095 37.3784 36.2095C37.3979 36.2095 37.3784 36.2095 37.3588 36.2193C37.6129 36.2193 37.7106 36.2193 37.9549 36.1998C38.0037 36.2095 38.0233 36.2193 38.0428 36.2291C38.0233 36.2291 38.2968 36.2193 38.5704 36.2095C38.844 36.2095 39.0883 36.2095 39.1274 36.2095L39.1176 36.2291Z" fill="#1C1A1F"></path><path d="M52.0748 49.8496C51.8403 49.8301 51.4397 49.8203 51.0586 49.8203C51.3517 49.8399 51.6644 49.8496 52.0748 49.8496Z" fill="#1C1A1F"></path><path d="M32.5802 49.7499L32.5216 49.789C31.6129 49.789 32.2578 49.7401 31.4175 49.7499C31.0951 49.8085 30.03 49.7499 29.7369 49.7694C29.7369 49.7694 29.3363 49.7694 29.3558 49.7499C29.2288 49.7792 28.9357 49.7499 28.6719 49.7694C28.5742 49.7694 28.7403 49.7694 28.8087 49.789H28.2126C27.9781 49.789 27.9195 49.7694 28.1736 49.7694C27.8023 49.7694 27.0011 49.7694 26.024 49.7597C26.024 47.1606 26.0337 43.5063 26.0337 42.412C26.0142 42.6269 26.0337 43.1448 25.9947 43.3402C25.9751 42.9005 25.9947 42.6953 25.9849 42.4999C26.0337 42.3338 25.9947 41.5326 26.0533 41.2004L26.024 41.0734L26.0435 40.8584C26.024 40.7607 26.024 40.7802 26.0435 40.7802C26.0435 40.7802 26.0435 40.7802 26.0533 40.79C26.0533 40.79 26.0533 40.79 26.0631 40.79H26.0728C26.151 40.8291 26.2389 40.8682 26.3366 40.917C27.2649 41.3176 27.7339 41.4447 28.2517 41.6596C28.1736 41.6303 27.9684 41.5326 28.2224 41.6205C28.2517 41.6694 28.8868 41.8355 28.9943 41.9039C29.2386 41.9918 30.03 42.2361 29.776 42.1188C29.903 42.1775 30.6163 42.3924 30.1864 42.285C30.4306 42.3534 30.6554 42.4217 30.8312 42.4608L30.5283 42.3631C31.3393 42.5879 31.7888 42.7149 32.3262 42.8028L32.0233 42.7246C32.5118 42.8321 32.932 42.9103 33.1176 42.9787L32.6095 42.8907C33.4303 43.0569 33.9286 43.135 34.6223 43.2132L34.3781 43.1741C34.8178 43.223 36.1954 43.3891 37.5731 43.4281C38.9508 43.477 40.309 43.3891 40.7194 43.35H40.3383C40.5728 43.3207 40.8073 43.3011 41.032 43.2718C40.9539 43.2718 40.6998 43.3891 40.6314 43.3793C41.3838 43.3402 43.719 43.1448 45.9761 42.5976C48.2429 42.0798 50.3827 41.2199 51.0276 40.9561C51.5455 40.7412 51.1351 40.9561 51.1351 40.9561C51.4478 40.8096 51.5064 40.7802 51.565 40.7509C51.6236 40.7216 51.6432 40.7118 51.7604 40.6532C51.7995 40.6434 51.7604 40.6825 51.7409 40.6923C51.7898 40.663 51.8288 40.663 51.8386 40.6434C51.78 40.663 51.8191 40.6044 51.78 40.5946L51.8875 40.5457C51.8875 40.5457 51.9754 40.4871 51.9559 40.5457L51.9363 40.5653C51.9363 40.5653 51.9559 40.5946 51.9656 40.6434C51.9754 40.7216 51.9949 40.6728 51.9852 41.1124C51.9852 42.3436 51.9852 43.6529 51.9852 44.884C51.9754 44.8645 51.9656 44.6104 51.9559 44.3466C51.9559 44.5127 51.9559 44.757 51.9559 44.9133C51.9754 44.6202 51.9754 45.4312 51.9852 45.1967C52.034 46.0956 51.9852 47.2583 52.0243 48.0498C52.0731 48.1182 52.845 49.7499 52.9036 49.7499C52.9036 49.9844 52.9036 50.1994 52.9036 50.3166C52.9134 50.258 52.9232 49.7694 52.9134 49.5154L52.8841 49.4665C52.8743 48.8705 52.9036 49.3297 52.9036 48.7533C52.9329 48.724 52.9329 49.2516 52.9329 49.7206C52.9329 49.3004 52.9525 48.8803 52.9329 48.7044C52.9427 48.3038 52.9623 48.7533 52.972 48.2745C52.972 47.9325 52.9427 47.4928 52.9525 47.102C52.9818 46.164 52.9134 45.6559 52.9427 44.7863V44.884C52.9525 44.4736 52.9525 44.0339 52.9623 43.4184C52.9623 43.5747 52.9427 43.7115 52.9329 43.3793C52.9329 42.7051 52.9427 42.4217 52.9525 41.8453L52.9329 41.3958V39.0215C52.9329 39.0215 52.8841 39.041 52.8548 39.0508L52.6887 39.129C52.5812 39.1778 52.4639 39.2364 52.3467 39.2853C52.1122 39.3928 51.8777 39.51 51.6334 39.6175C51.4575 39.6957 51.2817 39.7836 51.096 39.8618C50.0505 40.3308 48.7901 40.8096 47.5003 41.2004C44.9208 42.0016 42.2241 42.324 41.1395 42.3827H41.2274C39.5664 42.5195 37.0064 42.5292 34.4758 42.1384C31.9451 41.7769 29.4633 41.0147 27.8609 40.3894C27.5678 40.2624 27.304 40.1451 27.0304 40.0279C26.8838 39.9595 26.7372 39.9009 26.5907 39.8325C26.3464 39.7152 26.1119 39.6077 25.8872 39.5003C26.4148 39.7641 26.2292 39.6859 25.8286 39.5003C25.4768 39.3439 25.2032 39.1974 25.0176 39.129C25.0176 39.3537 25.0176 39.51 25.0176 39.6175C25.0176 39.7738 25.0176 39.8227 25.0176 39.8911C25.0176 39.9595 25.0176 40.0181 25.0176 40.1744C25.0176 40.3503 25.0176 40.6532 25.0176 41.2297C25.0176 42.8224 25.0176 47.6003 25.0176 50.7661C26.278 50.7661 27.2942 50.7758 27.8609 50.7856C28.8184 50.7465 30.0105 50.7856 30.9485 50.7563H30.8508C31.8865 50.7563 37.5243 50.7661 38.7163 50.7758H38.56C39.5762 50.7465 39.4394 50.7856 40.2406 50.7954C40.1331 50.7563 41.0125 50.7368 41.3447 50.727H41.3349C41.8235 50.727 43.0253 50.7074 43.807 50.6879L43.7776 50.7074C44.4714 50.6879 45.7709 50.6977 46.2692 50.6879C47.4026 50.6879 49.1614 50.7368 50.6856 50.7074L51.6725 50.7661H51.8191C51.8191 50.7661 53.4019 50.0137 51.3891 49.8574L51.4185 49.8378H51.0179C50.5391 49.8378 50.3241 49.8574 50.3534 49.8378H51.0081C50.5293 49.8378 50.8615 49.8183 51.0472 49.8085C50.8615 49.8085 50.6856 49.8085 50.4902 49.7988C50.3925 49.7988 50.5586 49.7988 50.6368 49.8085C50.3827 49.8085 50.0212 49.8378 49.7086 49.8281C49.22 49.8281 49.6792 49.789 49.1028 49.789C46.0836 49.7792 43.1523 49.7694 40.1136 49.7499C40.0452 49.7499 40.1233 49.7499 40.2113 49.7401C39.283 49.7401 38.4916 49.7499 37.6415 49.7597C37.407 49.7597 37.3484 49.7401 37.28 49.7304C37.3484 49.7304 36.1954 49.7401 35.0132 49.7499C33.8309 49.7499 32.6486 49.7499 32.59 49.7499H32.5802Z" fill="#1C1A1F"></path><path d="M51.877 31.0215C51.8574 31.2267 51.8477 31.5882 51.8477 31.9302C51.8672 31.6664 51.877 31.3928 51.877 31.0215Z" fill="#1C1A1F"></path><path d="M41.5304 39.8529L41.4815 39.9017C40.6901 39.9603 41.247 39.8822 40.5142 39.9408C40.2309 40.019 39.2929 39.9896 39.0486 40.0092C39.0486 40.0092 38.6968 40.0092 38.7164 39.9896C38.6089 40.019 38.3451 39.9896 38.1204 39.9896C38.0422 39.9896 38.179 39.9994 38.2376 40.0092H37.7197C37.5146 39.9799 37.4657 39.9603 37.6904 39.9701C37.0162 39.9408 35.0425 39.7942 33.1177 39.3643C31.183 38.9539 29.307 38.2602 28.6328 37.9866C28.7989 38.0843 29.2289 38.2211 29.3754 38.3188C29.0041 38.2016 28.8478 38.1136 28.6817 38.0648C28.5644 37.9573 27.9 37.7326 27.6558 37.5567L27.5385 37.5372L27.3724 37.4394C26.62 37.0975 26.5126 37.0486 26.4539 37.0095C26.4149 36.99 26.3855 36.9704 26.0436 36.7848C26.0436 36.4819 26.024 36.2181 26.024 35.9934C26.024 35.71 26.0045 35.4853 26.024 35.241C26.024 35.3192 26.0045 35.5146 25.9947 35.2801C26.024 35.241 25.9752 34.6645 25.9947 34.557C25.9947 34.3323 25.9947 33.5995 25.9556 33.8438C25.9752 33.7167 25.9849 33.0719 25.9947 33.4529C25.9947 33.2282 25.9947 33.023 25.9947 32.8667V33.15C25.9752 32.4075 26.0045 32.0068 25.9752 31.5183V31.7919C25.9556 31.2154 25.9556 31.3131 25.9947 31.2936V31.3522L26.0045 31.3033C26.2683 31.3033 26.4735 31.2936 26.7861 31.2838H26.5712C27.3529 31.2447 31.4469 31.2154 32.1601 31.1763L31.8279 31.147L32.4435 31.1275C32.3653 31.1275 32.1406 31.2154 32.082 31.2056C33.4108 31.2056 40.2602 31.2056 41.5402 31.2056C42.0385 31.2252 41.6281 31.2447 41.6183 31.2545C42.2241 31.2447 41.8821 31.2252 42.3902 31.2252C42.527 31.2252 42.3609 31.2447 42.2827 31.2545C42.5075 31.2545 42.7127 31.2545 42.7322 31.2545C42.4488 31.2447 42.5661 31.2056 42.4488 31.1861H43.1035L43.0742 31.2056C43.2207 31.2056 43.4455 31.147 44.0904 31.1568C45.1945 31.1568 46.367 31.1568 47.4613 31.1568C47.4418 31.1666 47.217 31.1763 46.9825 31.1861C47.1291 31.1861 47.3538 31.1861 47.4906 31.1861C47.2268 31.1666 47.9498 31.1666 47.7447 31.1568C48.5459 31.1079 49.5913 31.1568 50.2949 31.1177C50.3535 31.0688 51.8093 30.2969 51.8093 30.2383C52.0145 30.2383 52.2099 30.2383 52.3174 30.2383C52.2588 30.2285 51.8289 30.2188 51.5944 30.2285L51.5553 30.2579C51.0277 30.2676 51.4283 30.2383 50.9104 30.2383C50.8811 30.209 51.3599 30.209 51.78 30.209C51.399 30.209 51.0277 30.1895 50.8713 30.209C50.5196 30.1992 50.9104 30.1797 50.4805 30.1699C50.1776 30.1699 49.777 30.1992 49.4252 30.1895C48.5752 30.1602 48.1257 30.2188 47.3538 30.1895H47.4418C47.0607 30.1797 46.6894 30.1797 46.1325 30.1699C46.2693 30.1699 46.3963 30.1895 46.1032 30.1992C45.4876 30.1992 45.2629 30.1895 44.7352 30.1797L44.3346 30.1992C42.3511 30.1992 34.5247 30.2285 32.5412 30.2285H32.6194C30.7531 30.2285 27.7632 30.2285 24.9395 30.2383C24.9492 32.4075 24.959 34.4691 24.9688 35.9543C24.9688 36.1497 24.959 36.3256 24.9492 36.5014C24.9492 36.8043 24.9492 37.1072 24.9492 37.4004C25.2033 37.5372 25.4475 37.6642 25.6723 37.7814C25.4182 37.6349 25.5159 37.6642 25.7114 37.7814C27.1086 38.4752 25.8091 37.8303 27.2454 38.4947C28.0759 38.866 30.118 39.6867 32.2383 40.1851C34.3488 40.7127 36.4984 40.9081 37.3094 40.9472C38.179 40.9667 39.2635 40.9863 40.1136 40.9276H40.0257C40.4849 40.9276 42.0092 40.8397 43.5236 40.5857C45.0479 40.3414 46.5526 39.931 47.0607 39.7747L46.9239 39.8138C47.8033 39.5206 47.6958 39.589 48.3895 39.3741C48.2918 39.3741 49.0246 39.0712 49.308 38.9637C49.7281 38.7976 50.6759 38.3775 51.3403 38.0257L51.3208 38.055C51.7507 37.8303 52.2393 37.5762 52.6985 37.332V36.1888C52.6985 35.1726 52.7473 33.5995 52.718 32.2413L52.7767 31.362V31.2349C52.7767 31.2349 52.0243 29.8182 51.868 31.616L51.8484 31.5867V31.9384C51.8484 32.3684 51.868 32.5638 51.8484 32.5345V31.9482C51.8484 32.3781 51.8289 32.0752 51.8191 31.9091C51.8191 32.0752 51.8191 32.2316 51.8093 32.4075C51.8093 32.4954 51.8093 32.3488 51.8191 32.2804C51.8191 32.5149 51.8484 32.8276 51.8386 33.111C51.8386 33.5506 51.7996 33.1403 51.7996 33.6484C51.7996 34.6938 51.78 35.7295 51.78 36.7653H51.7605L51.5651 36.8727C51.399 36.9607 51.2329 37.0486 51.0668 37.1268C50.7345 37.2929 50.3926 37.4492 50.0506 37.5958C49.3666 37.8987 48.6631 38.1723 47.9401 38.4263C47.8815 38.4361 47.9401 38.4165 48.0182 38.3872C47.2561 38.6608 46.5722 38.866 45.8686 39.0614C45.6732 39.1103 45.6146 39.1005 45.556 39.1103C45.6146 39.1103 44.6375 39.3643 43.6116 39.5402C43.1035 39.6379 42.5856 39.7063 42.185 39.7551C41.7942 39.7942 41.5304 39.8235 41.5011 39.8235L41.5304 39.8529Z" fill="#1C1A1F"></path><path d="M34.4961 27.0626C34.4961 27.0626 34.5352 26.9453 34.5645 26.8867C34.5254 26.9258 34.5059 26.9844 34.4961 27.0626Z" fill="#1C1A1F"></path><path d="M39.4505 26.4576L39.47 26.4185C39.7534 26.4185 39.5482 26.4674 39.812 26.4576C39.9097 26.399 40.2419 26.4576 40.3299 26.4381C40.3299 26.4381 40.4569 26.4381 40.4471 26.4576C40.4862 26.4283 40.5741 26.4576 40.6621 26.4478C40.6914 26.4478 40.6425 26.4478 40.623 26.4283H40.8086C40.877 26.4283 40.8966 26.4478 40.8184 26.4478C41.0724 26.4478 41.7662 26.4576 42.4501 26.4674C42.9875 26.4283 43.1439 26.78 43.2025 26.9071C43.2123 26.868 43.1634 26.7898 43.1732 26.7507C43.2318 26.8093 43.222 26.8582 43.2513 26.8777C43.2123 26.9168 43.2807 27.0438 43.2318 27.1025C43.2416 27.1025 43.2513 27.1122 43.2611 27.1318L43.2416 27.2002C43.2611 27.5031 43.2611 27.5422 43.2611 27.5617C43.2611 27.5812 43.2611 27.6203 43.2513 27.7571C43.2513 27.7571 43.2807 27.7864 43.2807 27.806C43.2807 27.806 43.2807 27.806 43.2709 27.806C43.2709 27.806 43.3002 27.8255 43.2904 27.8353C43.2709 27.806 43.2709 27.8548 43.2513 27.8353C43.2513 27.8353 43.2416 27.8353 43.2318 27.8353C43.1927 27.8353 43.1341 27.8451 43.1829 27.8646C43.1439 27.8451 42.9191 27.8353 43.0462 27.8255C42.968 27.8255 42.8996 27.8255 42.841 27.8255H42.9387C42.6846 27.8451 42.5381 27.8157 42.372 27.8451H42.4697C42.3133 27.8646 42.1863 27.8646 42.1277 27.8255H42.284C42.03 27.8157 41.8737 27.8255 41.6587 27.8353H41.7369C41.4633 27.8744 40.0563 27.9037 39.8022 27.9428L39.9195 27.9721L39.7045 27.9916C39.7045 27.9916 39.812 27.9037 39.8315 27.9135C39.3723 27.9135 36.9882 27.933 36.5583 27.9135C36.3824 27.8939 36.529 27.8646 36.529 27.8646C36.3238 27.8744 36.4411 27.8939 36.2652 27.8939C36.2163 27.8939 36.2749 27.8744 36.3043 27.8646C36.2261 27.8646 36.1577 27.8646 36.1479 27.8646C36.2456 27.8744 36.2065 27.9135 36.2456 27.933H36.0209L36.0307 27.9037C35.9818 27.9037 35.9037 27.9623 35.6789 27.9525C35.2881 27.9525 34.9559 27.9525 34.5944 27.9525C34.6139 27.9428 34.5944 27.933 34.6823 27.9232C34.6139 27.9232 34.6237 27.9232 34.6041 27.9232C34.6237 27.9428 34.5455 27.9428 34.565 27.9525C34.5162 27.9721 34.4673 27.9818 34.4185 27.9818C34.4185 27.9037 34.4185 27.8353 34.4087 27.7864C34.3599 27.8451 33.588 27.2783 33.5293 27.2979C33.5293 27.2197 33.5293 27.1416 33.5293 27.122C33.5196 27.1416 33.5098 27.2881 33.5196 27.3663H33.5489C33.5586 27.5617 33.5293 27.4249 33.5293 27.6008C33.5 27.6008 33.5 27.4444 33.5 27.2979C33.5 27.4249 33.4805 27.5617 33.5 27.6106C33.4902 27.7376 33.4707 27.6008 33.4609 27.7473C33.4609 27.9525 33.4903 28.2163 33.4805 28.4606C33.4805 28.6365 33.4805 28.7831 33.4805 28.9101C33.8225 28.9101 34.096 28.871 34.4576 28.8905H34.3989C34.653 28.9101 34.7995 28.8905 34.9754 28.9101C34.9266 28.9101 34.8875 28.8905 34.9852 28.8808C35.1806 28.9003 35.3174 28.8808 35.464 28.9003L35.6008 28.8808C36.2847 28.8808 39.001 28.8515 39.6752 28.8515H39.6459C40.7891 28.8515 42.9387 28.8221 44.3066 28.8124C44.3066 28.7342 44.3066 28.6756 44.3066 28.617C44.3164 28.4704 44.3261 28.2945 44.3261 28.1089C44.3261 27.9428 44.3261 27.8157 44.3261 27.6496C44.3261 27.7473 44.2968 27.718 44.2968 27.6399C44.2968 27.1025 44.2773 27.6203 44.2675 27.0536C44.2577 26.8484 44.1893 26.4674 43.9353 26.1254C43.6813 25.7736 43.2123 25.4805 42.7042 25.4512C41.9811 25.4414 41.2581 25.4219 40.9259 25.4219C40.6328 25.461 40.2615 25.4219 39.9683 25.4512H39.9976C39.597 25.4512 37.9946 25.4414 37.5647 25.4317H37.6136C37.3009 25.461 37.34 25.4219 37.0957 25.4121C37.125 25.4512 36.8612 25.4707 36.7537 25.4805C36.5974 25.4805 36.2456 25.5098 35.9916 25.5196V25.5C35.7864 25.5196 35.3956 25.5098 35.2197 25.5196C34.7605 25.4903 34.0081 25.8323 33.7931 26.4576C33.715 26.5748 33.6564 26.7019 33.6173 26.8289V26.8875C33.6173 26.8875 33.7834 27.0732 33.9886 27.1122C34.2035 27.1611 34.4087 27.0927 34.526 26.9266H34.5455L34.565 26.868C34.6041 26.7898 34.6041 26.7409 34.6237 26.7605C34.6041 26.7996 34.5846 26.8289 34.5748 26.868C34.6139 26.7898 34.6041 26.8484 34.6041 26.8875C34.6139 26.8582 34.6334 26.8191 34.653 26.7996C34.653 26.78 34.6432 26.7996 34.6334 26.8191C34.6432 26.7703 34.6628 26.7019 34.7116 26.6628C34.7702 26.5944 34.7409 26.6823 34.8093 26.6042C35.034 26.4087 35.2197 26.4283 35.7571 26.4381C36.2359 26.4381 36.6853 26.4381 37.1543 26.4478C37.1739 26.4478 37.1543 26.4478 37.125 26.4576C37.4377 26.4576 37.6233 26.4576 37.9165 26.4381C37.9848 26.4478 38.0044 26.4576 38.0337 26.4674C38.0142 26.4674 38.3659 26.4576 38.7372 26.4478C39.0987 26.4478 39.4407 26.4478 39.4896 26.4478L39.4505 26.4576Z" fill="#1C1A1F"></path><path d="M51.9266 27.8652C51.5749 27.8457 50.9593 27.8359 50.3828 27.8359C50.8323 27.8555 51.3013 27.8652 51.9266 27.8652Z" fill="#1C1A1F"></path><path d="M52.6797 28.9199C52.7872 28.9395 52.9142 28.9688 53.0314 29.0176C52.9142 28.9688 52.7969 28.9395 52.6797 28.9199Z" fill="#1C1A1F"></path><path d="M28.9371 27.7663L28.8491 27.8054C27.4714 27.8054 28.4485 27.7565 27.1783 27.7663C26.934 27.7956 26.4064 27.7956 25.8788 27.7858C25.7518 27.7858 25.615 27.7858 25.4977 27.7858C25.3512 27.7858 25.2046 27.7858 25.0678 27.8151C24.7942 27.8542 24.5793 27.9226 24.462 27.9715C24.462 27.9422 23.778 28.2841 23.8269 28.2646C23.6413 28.4112 23.2016 28.7531 22.9573 29.1733C22.8694 29.3296 23.0257 29.0658 23.1234 28.9681C22.9084 29.2612 22.7423 29.5934 22.6446 29.9452C22.5274 30.3556 22.5078 30.463 22.5958 30.0038C22.5469 30.1797 22.5078 30.3946 22.4981 30.6585C22.4981 30.8734 22.4981 31.1275 22.4981 31.401C22.4981 31.9384 22.4981 32.5833 22.4981 33.2966C22.4981 34.7231 22.4981 36.433 22.4883 38.1429C22.4883 41.5725 22.4883 45.0119 22.4883 46.2918C22.5078 45.9694 22.4883 45.1877 22.5274 44.8848C22.5469 45.5493 22.5274 45.8717 22.5371 46.1648C22.4883 46.4189 22.5274 47.6305 22.4688 48.1385L22.4981 48.334L22.4785 48.6662C22.4981 50.1611 22.4981 50.3272 22.4981 50.4542C22.4981 50.5324 22.4981 50.6008 22.5371 50.8353C22.586 51.0698 22.6446 51.5193 23.1332 52.1739C23.7292 52.9067 24.4229 53.1608 24.9799 53.2487C25.5954 53.3269 25.9179 53.2585 26.3576 53.2878C26.2305 53.2878 25.8983 53.2682 26.2892 53.2585C26.3576 53.2878 27.3346 53.2389 27.5203 53.2585C27.9014 53.2585 29.1422 53.2585 28.7221 53.2194C28.9371 53.2389 30.0412 53.2487 29.3768 53.2585C29.748 53.2585 30.0705 53.2585 30.3832 53.2585H29.9044C31.1648 53.2389 31.8488 53.2682 32.6793 53.2389H32.2103C32.9627 53.2194 33.5978 53.2194 33.8909 53.2585H33.119C34.3501 53.2585 35.0732 53.2585 36.1675 53.2487H35.7962C37.2618 53.2292 43.8279 53.151 45.2935 53.1412L44.7268 53.1119L45.782 53.0924C45.655 53.0924 45.2739 53.1803 45.1665 53.1705C45.7332 53.1705 46.8861 53.1705 48.3322 53.1705C49.0553 53.1705 49.8565 53.1705 50.687 53.1705C51.1072 53.1705 51.5273 53.1705 51.9572 53.1705C52.3481 53.1705 52.9245 53.1705 53.3838 52.9751C54.3413 52.6136 55.035 51.7049 55.1718 50.7376C55.2305 50.2197 55.1914 49.868 55.2012 49.4674C55.2012 49.0765 55.2012 48.7052 55.2012 48.3437C55.2012 46.9172 55.2012 45.8033 55.2012 45.2757C55.2207 44.4354 55.2402 45.1291 55.25 45.1291C55.2402 44.1032 55.2207 44.6894 55.2207 43.8198C55.2207 43.5853 55.2402 43.8687 55.25 44.0055C55.25 43.6244 55.25 43.2726 55.25 43.2433C55.2402 43.7221 55.2011 43.5169 55.1816 43.7221V42.6082L55.2109 42.6571C55.2109 42.4128 55.1523 42.022 55.1621 40.9276C55.1621 39.0614 55.1621 37.0584 55.1621 35.2019C55.1718 35.2312 55.1816 35.6221 55.1914 36.0129C55.1914 35.7686 55.1914 35.4364 55.1914 35.1531C55.1718 35.6025 55.1718 34.3714 55.1621 34.7231C55.1328 34.0392 55.1328 33.2575 55.1328 32.4954C55.1328 32.1143 55.1328 31.743 55.1328 31.3815C55.1328 31.0298 55.1523 30.6878 55.0839 30.336C55.0644 30.2774 54.7028 29.5739 54.1264 29.2612C53.5596 28.9192 52.9929 28.9681 52.9929 28.9974C52.7194 28.8899 52.4262 28.8802 52.3285 28.8704C52.4067 28.8704 52.9832 28.9486 53.247 29.1147H53.3056C53.6085 29.3003 53.628 29.3492 53.6476 29.3785C53.6671 29.4176 53.7062 29.4273 53.9114 29.7107C53.9212 29.7595 53.5499 29.2124 53.0027 29.0267C53.4815 29.2026 53.7941 29.613 53.9114 29.7693C54.1166 30.1797 53.8919 29.7302 54.0873 30.2481C54.1459 30.4435 54.185 30.6291 54.185 30.932V31.8505C54.1557 33.2868 54.2241 34.0489 54.1948 35.368V35.2215C54.185 35.7589 54.1752 36.5601 54.1752 37.4394C54.1752 37.1952 54.1947 36.99 54.2045 37.4981C54.2045 38.4947 54.1948 39.0419 54.185 39.8333L54.2045 40.5075C54.2045 42.1783 54.2045 46.3309 54.2045 50.4738C54.1557 51.2945 53.5206 52.0273 52.7487 52.1934C52.4067 52.2814 51.8791 52.2325 51.4101 52.2521C50.9313 52.2521 50.4721 52.2521 50.0226 52.2521C48.2443 52.2521 46.7884 52.2521 45.9384 52.2521H46.0752C40.9455 52.2521 30.4515 52.2521 25.1167 52.2618C24.7942 52.2032 24.4229 52.0371 24.1298 51.7635C23.8367 51.4997 23.6413 51.1382 23.5533 50.806C23.6608 51.1675 23.6022 51.06 23.5142 50.7669C23.4165 50.2881 23.4849 49.868 23.4654 49.7116C23.4654 49.526 23.4654 49.5065 23.4654 49.4869C23.4654 49.4381 23.4556 49.3892 23.4458 48.0604C23.4458 44.9923 23.4654 33.4041 23.4751 30.678C23.4751 30.0917 23.8269 29.4371 24.3936 29.0853C24.677 28.9095 24.9994 28.8118 25.3218 28.7922C25.7029 28.7922 26.0644 28.7922 26.426 28.7825H26.2794C27.0513 28.7825 29.4354 28.7825 31.9953 28.7922C31.9953 28.2939 31.9953 27.7956 31.9953 27.2973C31.9953 26.9455 32.0149 26.6719 32.0833 26.3788C32.2201 25.8023 32.523 25.2845 32.8943 24.9034C33.6368 24.1217 34.5553 23.9459 34.9559 23.9263L34.7507 23.9459C35.0732 23.897 35.337 23.9068 35.5617 23.9068C35.7669 23.9068 35.9232 23.9068 36.0796 23.9068C36.3825 23.9068 36.6756 23.9166 37.2325 23.9361C37.0762 23.897 38.3953 23.8775 38.9033 23.8677H38.8838C39.6362 23.8677 41.4047 23.8482 42.626 23.8286L42.5772 23.8482C43.0462 23.8384 43.7302 23.985 44.2773 24.3367C44.8343 24.6787 45.2056 25.1868 45.3717 25.4799C45.5671 25.8121 45.7136 26.2323 45.7723 26.7013C45.8211 27.18 45.7723 27.5904 45.782 28.7336C47.0913 28.7336 48.4397 28.7336 49.7588 28.7336L51.2537 28.7922H51.4687C51.4687 28.7922 53.8723 28.0399 50.8238 27.8835L50.8727 27.864H50.2669C49.5438 27.864 49.2116 27.8835 49.2605 27.864H50.2571C49.5341 27.864 50.0421 27.8444 50.3157 27.8347C50.0226 27.8347 49.7392 27.8347 49.4754 27.8249C49.3289 27.8249 49.5829 27.8249 49.6904 27.8347C49.2996 27.8347 48.7524 27.864 48.2736 27.8542C47.531 27.8542 48.2248 27.8151 47.3551 27.8151C47.1402 27.8151 46.9155 27.8151 46.7005 27.8151V27.5611C46.7005 27.3071 46.72 27.0432 46.6907 26.7306C46.6419 26.1345 46.4562 25.5581 46.1631 25.0402C45.5866 24.0045 44.5411 23.2424 43.3784 22.9981C43.0853 22.9395 42.7922 22.9004 42.499 22.9102H41.7174H40.154C39.1085 22.9102 38.0631 22.9102 37.0078 22.9102C36.9003 22.9102 37.0273 22.9102 37.1641 22.9004C36.4606 22.9004 35.806 22.9004 35.1611 22.9004C34.4185 22.9004 33.6955 23.1056 33.0701 23.4866C32.7184 23.6821 32.6304 23.7602 32.523 23.8189C32.6011 23.7798 31.9856 24.1804 31.4873 25.0793C31.243 25.519 31.0476 26.0857 30.9792 26.6915C30.9499 27.0139 30.9596 27.2973 30.9596 27.5513V27.7761C29.8653 27.7761 28.9273 27.7761 28.8882 27.7761L28.9371 27.7663Z" fill="#1C1A1F"></path></g><defs><clipPath id="clip0_65_166"><rect width="74" height="74" fill="white" transform="translate(2 2)"></rect></clipPath></defs></svg> 