<?xml version="1.0" encoding="UTF-8"?> <svg xmlns="http://www.w3.org/2000/svg" width="78" height="77" viewBox="0 0 78 77" fill="none"><path d="M75.7019 75.1982C74.7424 75.1537 73.0899 75.15 71.5234 75.1426C72.7296 75.1871 74.0101 75.2056 75.7019 75.1982Z" fill="#2C282F"></path><g clip-path="url(#clip0_65_387)"><path d="M34.098 75.8963L33.3613 75.8398C33.3754 75.8634 33.5584 75.8869 34.098 75.8963Z" fill="#2C282F"></path><path d="M75.7559 15.4414C75.7559 15.4979 75.7652 15.5638 75.7699 15.6156C75.7699 15.4932 75.7606 15.4508 75.7559 15.4414Z" fill="#2C282F"></path><path d="M5.43359 74.0512H5.47113C5.53212 74.0512 5.60719 74.0418 5.66349 74.0371L5.43359 74.0512Z" fill="#2C282F"></path><path d="M43.053 74.2009C33.1813 74.135 30.5633 73.8807 20.3303 73.9843C15.4508 73.9655 10.2428 74.022 5.47119 74.0549C5.31167 74.0643 5.14745 74.0785 4.97854 74.0926C4.89409 74.0926 4.80495 74.102 4.7158 74.1067C4.63604 74.1067 4.49998 74.1161 4.51874 74.1208C4.46244 74.135 4.39206 74.1444 4.31699 74.1491C4.31699 74.1067 4.31699 74.0596 4.3123 74.0126C4.3123 73.8525 4.3123 73.6877 4.3123 73.5229C4.3123 72.9391 4.3123 72.3459 4.3123 71.7621C4.3123 70.5898 4.29823 69.4458 4.23723 68.4713L4.34984 67.4308C4.29353 66.5033 4.256 65.4158 4.31699 64.4836L4.34984 64.5401C4.26538 63.156 4.31699 61.5929 4.27477 60.9055L4.30761 60.962L4.29353 59.2813L4.34045 59.5685C4.25131 57.1533 4.24192 54.6675 4.28415 52.4783L4.14809 52.6619C4.29823 47.9774 4.01671 46.2637 4.1997 42.0313L4.23254 42.0878C3.87127 36.7395 4.47652 33.6369 4.13401 28.1239C4.17624 28.8113 4.20439 27.8273 4.23723 27.8838C4.1997 25.3462 4.17624 22.6344 3.9088 22.5967C3.9088 20.7465 3.99325 21.0902 4.09648 20.8501C3.97918 20.8595 3.93226 19.2541 3.92288 17.8087L3.96979 18.4725L3.93226 14.3342L3.71174 15.1487C3.77743 12.9548 3.98387 14.5932 3.92757 12.4887L3.74459 12.5169C3.78212 9.4803 4.05894 7.70068 4.195 4.7629C4.195 4.54633 4.1997 4.33447 4.20439 4.1132C5.35389 4.1132 6.51278 4.1132 7.67636 4.10849C9.15899 4.09908 10.6463 4.08495 12.1383 4.07554C15.1177 4.04258 18.1111 4.00962 21.0716 3.97667C26.9974 3.91546 32.8153 3.88722 38.2297 4.04258L38.7271 4.17911C38.9429 4.38155 41.8519 3.88251 42.2835 4.06612L43.6019 3.97196C43.9726 4.00962 44.7514 4.04729 44.0946 4.09437C45.3145 4.10378 45.3426 4.07083 46.22 4.00962L47.529 4.13674C52.3335 4.23561 56.4201 3.99079 61.4732 4.04258C63.1904 4.1132 65.3346 4.14616 67.6759 4.15557C68.8441 4.15557 70.064 4.15557 71.3074 4.15086C71.9267 4.14616 72.5507 4.14145 73.1794 4.13674H73.6486L73.8691 4.12732L74.1225 4.11791C74.1929 7.64418 74.2585 11.0998 74.3101 13.7175C74.6104 23.0063 73.8081 33.8111 74.1553 43.326C74.1272 43.6367 74.1929 44.437 74.2116 44.4323L74.1835 53.1374C74.1835 53.1374 74.1084 95.3491 75.774 63.2784L75.8162 63.4949C75.9241 58.7305 75.9476 55.7315 75.7271 52.4453C75.9992 51.9274 75.7552 48.533 75.8444 47.4172L75.8678 47.5208C75.6614 44.6159 76.0414 41.5322 75.8538 38.731C75.8772 38.8392 75.9476 38.9005 75.9523 39.5454C75.9195 37.5022 75.8585 34.7104 76.0133 34.5597C75.9711 29.6822 76.0461 22.8792 75.7928 19.7531L75.835 19.965C75.6661 18.1853 75.8115 17.6628 75.7224 15.6713C75.7412 15.563 75.7552 15.4218 75.7599 15.4453C75.591 13.5056 75.7318 9.78631 75.6614 8.21856L75.7646 8.11498L75.7412 4.14616L75.7177 5.69979C75.6332 5.55384 75.6145 5.24782 75.6239 4.81469C75.6473 4.21207 75.6755 3.42583 75.7036 2.5219C75.3611 2.51249 74.9999 2.50307 74.6292 2.48895C74.282 2.48424 73.9207 2.47482 73.5548 2.47012C73.0199 2.46541 72.4522 2.47482 71.8704 2.51249C69.257 2.47482 66.5733 3.1104 63.8614 2.96916C62.5664 3.10569 65.0015 2.74789 63.0685 2.85146C63.0075 2.70081 63.9693 2.7573 63.472 2.6396C61.5718 2.71022 60.3566 2.48424 58.0153 2.58781L57.9215 2.47012C54.8671 2.68197 52.1552 2.31475 50.1236 2.5219C46.9754 2.62077 48.0123 2.17351 44.728 2.4042L43.4518 2.24413C42.0489 2.22059 42.4477 2.43716 40.89 2.36183C40.9839 2.26296 38.9241 2.2818 39.8344 2.18764C36.3108 2.03227 32.684 2.40891 28.0437 2.14526C27.035 2.33829 24.6984 2.2253 23.9477 2.37125C23.8211 2.2865 19.2653 2.35712 21.888 2.17351C22.1132 2.15939 22.512 2.15939 22.4839 2.19234L22.7982 2.07935C20.152 1.86279 17.9891 2.19705 15.371 2.1641C16.1452 2.20176 17.1821 2.19234 16.4877 2.27238L14.0573 2.25826L14.564 2.15939L10.9372 2.10289L11.4345 2.22059C9.66102 2.15939 9.037 1.95695 7.03827 2.12643C6.13274 2.22059 8.71796 2.2865 6.8459 2.32417C6.33918 2.30534 5.77147 2.2865 5.17091 2.26767C4.80025 2.25826 4.41552 2.24884 4.02141 2.23942C3.45838 2.23001 2.88128 2.22059 2.2948 2.21118C2.25727 4.26386 2.21035 6.50956 2.17281 8.55282C2.30888 8.27034 2.30419 9.08483 2.32764 9.92755L2.21035 10.0264C2.37456 13.2514 1.9523 11.2081 2.08367 14.4048L2.00391 14.1224L2.24788 14.9651C2.47778 17.8511 2.00391 16.5234 2.32295 19.7296C2.30419 18.4631 2.581 19.1316 2.52939 20.6947L2.41679 20.2992C2.44025 21.1655 2.48717 21.4527 2.46371 22.0271C2.40271 21.5139 2.29949 21.754 2.31826 23.0251L2.17751 22.173L2.38395 24.5741C2.26196 26.429 2.41679 29.3668 2.25727 30.1248C2.25727 30.1248 2.17751 34.1124 2.3558 35.0258C2.24788 34.2254 2.20566 36.4241 2.07898 35.7979C2.20096 36.8289 2.29949 39.8797 2.17281 41.1038L2.15874 40.8731C2.02737 45.388 2.34172 48.5989 2.17751 52.6525C2.31357 52.4688 2.2385 54.611 2.4121 54.079C2.5857 58.2738 2.06021 61.7247 2.59508 63.2407C2.62323 65.1474 2.4684 65.5005 2.44025 66.4892L2.4121 66.0325C2.45432 69.6059 2.45902 70.6463 2.44963 73.3016C2.45902 73.5041 2.4684 73.6783 2.48717 73.8431C2.50594 74.0738 2.5247 74.2856 2.53878 74.4928C2.57631 74.9353 2.61854 75.3355 2.65138 75.8345C3.00796 75.8157 3.40208 75.7969 3.86657 75.7922C4.09178 75.7922 4.33107 75.7922 4.5985 75.7875C4.79087 75.7875 5.002 75.7922 5.2319 75.7969C4.46713 75.8957 5.43366 75.8769 6.32042 75.8769C5.7527 75.891 5.5791 75.9287 6.74268 75.9946C6.9069 75.9617 7.16026 75.9428 7.39485 75.9287C7.40424 75.9381 7.45115 75.9428 7.42769 75.9522C8.90563 75.9193 8.64758 75.8863 7.96257 75.8722C7.99541 75.8581 7.93911 75.8392 7.72797 75.811C9.26221 75.9381 12.0023 75.8016 12.1899 75.9711C16.6331 75.9334 19.8095 75.7545 23.5067 75.6886C23.9243 75.778 23.0563 75.8534 21.9865 75.8863L24.6093 75.8534C24.5858 75.9805 23.1032 75.924 22.2962 75.9522C25.421 76.1547 28.7334 75.7498 32.3978 75.9334L33.1578 75.8345L33.3784 75.8534C33.369 75.8016 34.1901 75.731 34.7296 75.7121C35.2457 75.8204 34.6921 75.9664 36.5078 75.9569C37.9435 76.0652 40.5804 75.9052 42.4571 75.844C41.4437 75.8251 41.7721 75.7639 42.2084 75.7263C43.114 75.7263 43.6348 75.8345 44.3385 75.7828L44.4277 75.9334C44.0711 75.7922 46.7971 75.7828 47.1302 75.7215C47.6463 75.8298 45.7226 75.8157 45.4974 75.9005C49.1336 75.8863 47.3132 75.8957 50.9494 75.8816C52.8871 75.7686 50.5975 75.7404 51.5265 75.6133C53.239 75.585 54.9093 75.4814 56.8752 75.5709L56.2512 75.4391C59.4698 75.3355 61.3935 75.3543 63.5611 75.4861C87.5271 74.4127 68.6095 74.022 68.6095 74.022C59.1742 73.7301 54.3041 74.1161 43.0717 74.215L43.053 74.2009Z" fill="#2C282F"></path></g><path d="M51.9029 47.5163C52.5696 46.8496 53.0267 46.0019 53.2077 45.0781C53.3887 44.1542 53.2934 43.1922 52.941 42.3255C52.5791 41.4588 51.9695 40.7064 51.1885 40.1921C50.4076 39.6682 49.4837 39.392 48.5408 39.392C47.5979 39.392 46.674 39.6682 45.893 40.1921C45.112 40.7159 44.5025 41.4588 44.1405 42.3255C43.7786 43.1922 43.6834 44.1542 43.8738 45.0781C44.0548 46.0019 44.512 46.8496 45.1787 47.5163C43.931 48.3164 43.0166 49.5545 42.6357 50.9832C42.55 51.288 42.5976 51.6118 42.7595 51.888C42.9214 52.1642 43.1786 52.3642 43.4833 52.4404C43.5881 52.469 43.6833 52.4785 43.7881 52.4785C44.0548 52.4785 44.3024 52.3928 44.512 52.2309C44.7215 52.069 44.8739 51.8499 44.9406 51.5927C45.3596 50.0117 46.8454 48.9069 48.5503 48.9069C50.2552 48.9069 51.741 50.0117 52.16 51.5927C52.1981 51.7451 52.2648 51.888 52.36 52.0213C52.4553 52.1451 52.5696 52.2594 52.7125 52.3356C52.8458 52.4118 52.9982 52.469 53.1601 52.488C53.3125 52.5071 53.4744 52.4975 53.6268 52.4595C53.7792 52.4214 53.922 52.3452 54.0459 52.2499C54.1697 52.1547 54.2745 52.0309 54.3506 51.8975C54.4268 51.7642 54.4745 51.6118 54.4935 51.4499C54.5126 51.288 54.4935 51.1356 54.4554 50.9832C54.0649 49.545 53.1601 48.3068 51.9029 47.5163ZM48.5408 41.7731C49.0075 41.7731 49.4742 41.916 49.8647 42.1731C50.2552 42.4303 50.5599 42.8113 50.7409 43.2399C50.9219 43.678 50.9695 44.1542 50.8742 44.6114C50.779 45.0781 50.8687 45.7076 50.5354 46.0409C50.202 46.3743 49.9654 46.7541 49.5082 46.8398C49.051 46.9351 48.1335 46.861 47.7049 46.68C47.2668 46.4991 46.5468 46.0434 46.2897 45.6529C46.0325 45.2624 46.1692 44.6209 46.1692 44.1447C46.1692 43.5161 46.4168 42.9065 46.8645 42.4589C47.3121 42.0112 47.9122 41.7636 48.5503 41.7636L48.5408 41.7731ZM54.4935 31.0582V35.8204C54.4935 36.1347 54.3697 36.4395 54.1411 36.6585C53.922 36.8776 53.6173 37.0109 53.303 37.0109C52.9887 37.0109 52.6839 36.8871 52.4648 36.6585C52.2458 36.4395 52.1124 36.1347 52.1124 35.8204V31.0582H39.4164C38.9021 31.0582 38.3973 30.8868 37.9878 30.582L33.8637 27.4866H25.3049V48.3898H37.8354C38.1497 48.3898 38.3217 48.1612 38.5408 48.3898C38.7599 48.6184 39.0259 48.6021 39.0259 48.9164C39.0259 49.2307 38.9021 49.5355 38.6735 49.7545C38.4449 49.9736 38.1497 50.1069 37.8354 50.1069H25.9299C25.3013 50.1069 24.6918 49.8593 24.2441 49.4117C23.7965 48.964 23.5488 48.364 23.5488 47.7258V27.4866C23.5488 26.858 23.7965 26.2484 24.2441 25.8007C24.6918 25.3531 25.2918 25.1055 25.9299 25.1055H33.8637C34.378 25.1055 34.8828 25.2769 35.2924 25.5817L39.4164 28.6771H52.1124C52.741 28.6771 53.3506 28.9247 53.7982 29.3724C54.2459 29.82 54.4935 30.4201 54.4935 31.0582Z" fill="#1C1A1F"></path><path d="M54.2732 31.6973C54.2538 32.162 54.2441 32.9559 54.2441 33.7111C54.2635 33.1302 54.2732 32.5106 54.2732 31.6973Z" fill="#1C1A1F"></path><path d="M55.2125 30.4685C55.1641 30.2458 55.0673 29.9941 54.9414 29.7617C55.0576 29.9844 55.1544 30.2361 55.2125 30.4685Z" fill="#1C1A1F"></path><path d="M27.8223 26.9542L27.7061 26.9929C26.8444 26.9929 26.6895 26.9832 26.5734 26.9735C26.4959 26.9735 26.4378 26.9735 26.3507 26.9639C26.1086 26.9639 25.7601 26.9639 25.1308 26.9639C25.1308 27.0316 25.1308 27.1575 25.1308 27.2931C25.1598 28.1838 25.1598 28.6582 25.1501 29.3844C25.1501 30.0621 25.1404 30.7302 25.1501 31.0206C25.1501 31.0593 25.1501 31.2143 25.1501 31.4079C25.1501 31.6015 25.1501 31.7952 25.1308 31.7661C25.1598 32.0179 25.1307 32.5988 25.1404 33.1119C25.1404 33.2959 25.1404 32.9764 25.1598 32.8408V34.0123C25.1598 34.4674 25.1404 34.5836 25.1404 34.0898C25.1404 36.123 25.1211 43.0456 25.1114 48.6902C28.4904 48.6902 31.4143 48.6902 32.7214 48.6902C32.2954 48.6708 31.2788 48.6902 30.8915 48.6515C31.7629 48.6321 32.1792 48.6515 32.5568 48.6418C32.8957 48.6902 34.4739 48.6515 35.1322 48.7096L35.384 48.6805L35.8196 48.6999C36.7782 48.6999 37.3107 48.6902 37.6302 48.6805C37.8044 48.6805 37.8432 48.6805 37.8819 48.6805C37.9206 48.6805 37.9497 48.6902 37.969 48.6999C38.0078 48.7193 38.0465 48.7193 38.1724 48.7967C38.2595 48.8645 38.5306 49.0872 38.4047 49.5422C38.3176 49.794 38.1046 49.9392 37.9013 49.9779C37.8335 49.9973 37.6108 49.9876 37.4559 49.9973C37.2816 49.9973 37.1267 49.9973 36.9718 49.9973C36.3425 49.9973 35.8584 49.9973 35.2968 49.9973C35.4614 49.9973 35.8971 50.0166 35.384 50.0263C35.2968 49.9973 34.0285 50.0457 33.7767 50.0263C33.2733 50.0263 31.6564 50.0263 32.2083 50.065C31.9372 50.0457 30.4946 50.036 31.3466 50.0263C30.8625 50.0263 30.4171 50.0263 30.0395 50.0263H30.6688C29.0229 50.0457 28.1322 50.0166 27.0575 50.0457H27.6674C26.7089 50.0554 25.8182 50.0747 25.5277 50.0166C25.7698 50.0263 26.1764 50.0166 26.4862 50.0166C26.0893 50.0166 25.6729 50.036 25.4406 49.9973C25.1792 49.9585 24.9371 49.8714 24.7241 49.7552C24.3078 49.5035 23.9883 49.1259 23.843 48.6031C23.8721 48.7289 23.9205 48.8451 23.9786 48.9613C23.9011 48.8064 23.7946 48.5643 23.7753 48.2255C23.7753 47.8188 23.7656 47.3251 23.7559 46.7732C23.7559 45.6501 23.7365 44.314 23.7269 42.9682C23.6978 40.325 23.6784 37.7205 23.6688 36.8298L23.6397 37.5656L23.6204 36.1908C23.6204 36.3554 23.7075 36.8492 23.6978 36.9847C23.6978 36.2489 23.6978 34.7482 23.6978 32.8505C23.6978 31.9017 23.6978 30.8657 23.6978 29.7813C23.6978 29.2391 23.6978 28.6873 23.6978 28.1257C23.6978 27.5254 23.6688 27.08 23.9011 26.6444C24.1045 26.2184 24.4627 25.8698 24.8887 25.6858C25.3147 25.4728 25.7698 25.5116 26.341 25.5116H29.3811C31.2401 25.5116 32.702 25.5116 33.3798 25.5116C34.4158 25.5309 33.5831 25.5503 33.5637 25.56C34.1834 25.5503 34.2415 25.6181 34.348 25.6278C34.4351 25.6568 34.5319 25.6471 34.9192 25.8988C35.1419 26.0731 34.8611 25.8698 34.7449 25.8117C35.0741 26.015 35.4905 26.3636 35.5098 26.3539C35.016 25.9763 35.2484 26.1022 35.0548 25.9279L36.2166 26.809L36.1488 26.7896C36.4102 26.9832 36.8459 27.235 37.9787 28.1063C38.4047 28.4258 38.8307 28.755 39.2858 29.0939C41.2803 29.0939 43.3813 29.0939 45.3564 29.0939C45.3177 29.1036 44.8045 29.1133 44.301 29.1229C44.6205 29.1229 45.0756 29.1229 45.4242 29.1229C44.8336 29.1036 46.4408 29.1036 45.9857 29.0939C47.7672 29.0455 50.0618 29.0939 51.64 29.0552C51.6884 29.0455 51.9111 28.9874 52.2209 28.9099C52.5307 28.8228 52.9374 28.7647 53.3731 28.8615C53.8087 28.9487 54.2251 29.1714 54.5058 29.394C54.7866 29.6167 54.9415 29.8297 54.9512 29.82C55.232 30.3526 55.2707 30.9625 55.2514 31.1368C55.2514 31.0593 55.261 30.7302 55.1545 30.3526C55.0577 29.975 54.8447 29.578 54.6414 29.3359L54.5543 29.2682C54.0702 28.7453 53.9637 28.755 53.9152 28.6873C53.8475 28.6582 53.8087 28.5517 53.1601 28.3193C53.1213 28.3 53.4312 28.3581 53.8281 28.5808C54.2251 28.8034 54.6801 29.2294 54.9415 29.7426C54.4768 28.7938 53.4699 28.3097 53.0632 28.2709C52.5985 28.1644 52.6179 28.1838 52.6179 28.1741C52.6469 28.1741 52.5404 28.1354 52.0757 28.1354C51.4076 28.1354 50.5169 28.1644 49.7423 28.1547H49.752C47.835 28.1547 46.9249 28.1547 45.1628 28.1547H45.3467C44.6786 28.1451 43.5749 28.1354 42.4518 28.1354C42.7616 28.1354 43.0327 28.1547 42.3743 28.1644C41.2028 28.1644 40.4767 28.1547 39.5956 28.1451L39.5182 28.087L39.3342 27.9611L38.976 27.7094C38.5403 27.3802 37.94 26.9348 37.2138 26.3926C36.8556 26.1215 36.4586 25.8311 36.0423 25.5213C35.8196 25.3567 35.655 25.2211 35.3646 25.0275C35.0838 24.8435 34.7643 24.708 34.4158 24.6305C34.0672 24.5434 33.6896 24.5531 33.4185 24.5531C33.1184 24.5531 32.8086 24.5531 32.4987 24.5531C31.8791 24.5531 31.2401 24.5531 30.5817 24.5531C29.2746 24.5531 27.9192 24.5531 26.5637 24.5531H25.518C25.1017 24.5821 24.7047 24.6983 24.3368 24.8822C23.601 25.2598 23.0588 25.9473 22.8555 26.7121C22.7393 27.0897 22.7393 27.5254 22.749 27.8159C22.749 28.1354 22.749 28.4549 22.749 28.7647C22.749 29.3844 22.749 29.9846 22.749 30.5656C22.749 32.8796 22.749 34.7869 22.749 35.881V35.7067C22.749 37.3817 22.749 39.502 22.749 41.8451C22.749 43.0166 22.749 44.2462 22.749 45.5048C22.749 46.1342 22.749 46.7732 22.749 47.4122C22.749 47.7414 22.7296 48.0125 22.7683 48.4385C22.8168 48.8258 22.9426 49.2034 23.1363 49.5325C23.5235 50.2103 24.1916 50.7137 24.9371 50.9074C25.305 51.0139 25.7213 51.0042 26.0118 51.0042H26.9606C28.229 51.0042 29.4586 51.0042 30.6495 51.0042C33.0216 51.0042 35.1806 50.9945 36.9137 50.9848C37.1945 50.9848 37.4849 50.9848 37.7851 50.9945C38.2111 50.9945 38.6661 50.8106 38.976 50.4911C39.6537 49.8424 39.5762 48.6805 38.9953 48.1287C39.2858 48.4578 39.2955 48.6224 39.2761 48.574C39.2471 48.5353 39.1406 48.3029 38.8985 48.0706C38.4725 47.6639 37.9303 47.6058 37.6689 47.6252C37.4269 47.6252 37.2526 47.6252 37.1364 47.6252C36.9331 47.6252 36.8943 47.6252 36.8363 47.6252C36.7782 47.6252 36.7104 47.6349 34.987 47.6446C33.3798 47.6446 29.8749 47.6446 26.0893 47.6446C26.0989 42.4357 26.1183 36.7039 26.1183 34.7288C26.1086 32.7246 26.0989 30.5075 26.0893 28.6195V28.8034C26.0893 28.6195 26.0893 28.3387 26.0893 27.9514C27.8126 27.9514 30.8237 27.9514 33.5637 27.9514C34.6191 28.7453 35.6357 29.5005 36.4683 30.1299C36.904 30.4591 37.2913 30.7495 37.6302 31.0012C38.0174 31.2917 38.4047 31.4369 38.6855 31.495C38.5693 31.466 38.4531 31.4273 38.337 31.3788C38.8888 31.5918 39.3729 31.5628 39.6247 31.5628C39.8958 31.5628 40.0991 31.5628 40.3024 31.5628C40.6897 31.5628 41.0576 31.5725 41.8128 31.5918C41.5998 31.5531 43.3329 31.5338 43.9912 31.5241H43.9622C44.9497 31.5241 47.2347 31.5047 48.8516 31.4853L48.7838 31.5047C49.6261 31.5047 50.8751 31.495 51.8917 31.4853V32.5504C51.8917 33.1119 51.8917 33.7509 51.882 34.4383C51.882 34.7869 51.882 35.1451 51.882 35.5034C51.882 35.7067 51.8723 35.8326 51.882 36.1036C51.9111 36.3554 51.9885 36.5974 52.1241 36.8104C52.3952 37.2461 52.889 37.5366 53.4118 37.5559C53.9346 37.585 54.4671 37.3333 54.7769 36.9073C54.9319 36.6942 55.0384 36.4522 55.0771 36.1908C55.1158 35.9003 55.0868 35.7454 55.0964 35.5421C55.0964 35.1548 55.0964 34.7772 55.0964 34.3899L55.1545 32.4439V32.1631C55.1545 32.1631 54.409 29.0261 54.2541 33.0054L54.2348 32.9376V33.7219C54.2348 34.661 54.2541 35.0967 54.2348 35.0386V33.7509C54.2348 34.6998 54.2154 34.0414 54.2057 33.6735C54.2057 34.0608 54.2057 34.4383 54.196 34.7675C54.196 34.9515 54.196 34.632 54.2057 34.4868C54.2057 34.7385 54.2154 35.0483 54.2251 35.3678C54.2251 35.5324 54.2251 35.697 54.2251 35.8519C54.2251 36.0165 54.2251 36.0649 54.1863 36.1714C54.0702 36.4425 54.0121 36.4232 54.0024 36.4328C53.9733 36.4328 53.9733 36.5006 53.6635 36.6071C53.3343 36.7039 52.9567 36.5006 52.8405 36.1811C52.8115 36.1036 52.7921 36.0165 52.7921 35.9294V35.484V34.6029C52.7921 33.2475 52.7921 31.9017 52.8018 30.5559C49.0646 30.5559 45.337 30.5462 41.5223 30.5365C41.3868 30.5365 41.5514 30.5365 41.7256 30.5268C40.8446 30.5268 39.9054 30.5462 39.1793 30.5268C38.8598 30.4978 38.55 30.3816 38.2885 30.1976C37.9594 29.9556 37.6399 29.7135 37.3107 29.4715C36.9524 29.1907 36.8556 29.1036 36.7491 29.0164C36.5942 28.9003 35.4808 28.0773 33.9026 26.9058C31.1917 26.9058 27.8804 26.9058 27.7739 26.9058L27.8223 26.9542Z" fill="#1C1A1F"></path><path d="M48.7363 42.5117C48.7363 42.5117 48.8331 42.5408 48.9009 42.5504C48.8525 42.5214 48.8041 42.5117 48.7363 42.5117Z" fill="#1C1A1F"></path><path d="M50.5474 44.5942H50.5861C50.5764 44.7492 50.5377 44.6427 50.528 44.7685C50.5765 44.8266 50.4796 44.9815 50.4893 45.0299C50.4893 45.0299 50.4603 45.088 50.4506 45.0783C50.4699 45.1074 50.4312 45.1461 50.4215 45.1848C50.4215 45.2042 50.4312 45.1848 50.4506 45.1752L50.4215 45.2623C50.4215 45.2623 50.3828 45.2913 50.3925 45.2623C50.3441 45.3688 50.1601 45.6786 49.8794 45.8916C49.6083 46.1143 49.2694 46.2305 49.1532 46.2595C49.1919 46.2692 49.2597 46.2402 49.2984 46.2595C49.2403 46.2983 49.2016 46.2789 49.1726 46.3079C49.1338 46.2692 49.0177 46.3273 48.9596 46.2886L48.9402 46.3176H48.9015C48.6013 46.3564 48.8337 46.3273 48.5723 46.3176C48.4174 46.3176 48.3399 46.337 48.2528 46.2983C48.2625 46.2983 48.2915 46.3273 48.2528 46.3273C48.2528 46.2983 48.1463 46.3273 48.1269 46.2886C48.0882 46.2886 47.9623 46.2305 47.9914 46.2886C47.972 46.2692 47.8752 46.2111 47.943 46.2208C47.9042 46.2014 47.8752 46.1821 47.8461 46.1821L47.8849 46.2111C47.759 46.1627 47.7106 46.0949 47.6235 46.0853L47.6622 46.124C47.5944 46.0853 47.5363 46.0465 47.5363 45.9981L47.6041 46.0369C47.5363 45.9884 47.5073 45.9691 47.3427 45.8529L47.3717 45.8819C47.304 45.8529 47.1394 45.7077 47.0038 45.5237C46.8683 45.3494 46.7714 45.1364 46.7327 45.0783V45.1461L46.6649 45.0396C46.6649 45.059 46.7618 45.0687 46.7618 45.0783C46.723 44.9622 46.6165 44.5846 46.6746 44.1973C46.7133 43.81 46.907 43.4711 46.9748 43.384C47.0329 43.3162 47.0232 43.3937 47.0232 43.3937C47.0716 43.2969 47.0232 43.3356 47.0813 43.2581C47.1006 43.2388 47.0909 43.2775 47.0813 43.2872C47.1006 43.2484 47.1297 43.2291 47.1297 43.2194C47.0909 43.2581 47.0813 43.2194 47.0425 43.2194L47.12 43.1226V43.1419C47.12 43.1419 47.1297 43.0451 47.2265 42.9677C47.3814 42.8321 47.5654 42.6966 47.759 42.6094C47.759 42.6191 47.7299 42.6482 47.6912 42.6772C47.7106 42.6675 47.7493 42.6385 47.7784 42.6385C47.7203 42.6385 47.8461 42.5901 47.8074 42.5998C47.9236 42.4836 48.1366 42.4739 48.2625 42.4158C48.2334 42.3674 48.4851 41.5638 48.5142 41.5154C48.5723 41.5154 48.6304 41.5154 48.6497 41.5154C48.6304 41.5057 48.5142 41.496 48.4561 41.5154V41.5444C48.3012 41.5638 48.4077 41.5251 48.2721 41.5444C48.2625 41.5251 48.3883 41.496 48.5045 41.4863C48.398 41.4863 48.2915 41.4863 48.2528 41.5154C48.156 41.5154 48.2528 41.4863 48.1366 41.496C48.0495 41.5154 47.9526 41.5638 47.8558 41.5735C47.6235 41.6122 47.5266 41.7187 47.3233 41.7865L47.3427 41.7671C47.2652 41.7865 47.1394 41.8736 47.0232 41.9414C47.0619 41.922 47.1006 41.922 47.0232 41.9704C46.8876 42.0479 46.8102 42.1253 46.7037 42.1834L46.6359 42.2706C46.4326 42.4448 45.9678 42.9774 45.8032 43.6357C45.6096 44.2941 45.7258 44.9718 45.8032 45.2333V45.2139C45.9001 45.6108 46.1808 46.2014 46.6649 46.6178C47.1297 47.0535 47.759 47.2665 48.1753 47.3149C48.3012 47.3633 48.4851 47.373 48.6207 47.373C48.5432 47.3633 48.5723 47.3439 48.6207 47.3439C49.037 47.3246 48.6497 47.3439 49.0661 47.2858C49.2984 47.2471 49.8697 47.1019 50.3344 46.7533C50.8088 46.4241 51.1186 45.9304 51.2155 45.7464C51.2929 45.5237 51.4091 45.272 51.4285 45.0396V45.059C51.4575 44.9428 51.5253 44.5458 51.4866 44.1392C51.4575 43.7325 51.3026 43.3453 51.2348 43.2194V43.2581C51.1186 43.0451 51.167 43.0645 51.0799 42.8902C51.0605 42.9289 50.925 42.774 50.8766 42.7159C50.7991 42.6191 50.5958 42.4448 50.4506 42.3287H50.47C50.3344 42.2222 50.0924 42.0479 49.9859 41.9995C49.7632 41.8639 49.3856 41.68 49.0177 41.6606C48.9402 41.6316 48.8724 41.6025 48.795 41.5735H48.7562C48.7562 41.5735 48.4464 42.3093 48.7853 42.4739V42.4933H48.8434C48.9208 42.5126 48.9596 42.4933 48.9499 42.5126L48.8434 42.4933C48.9208 42.5126 48.8627 42.5126 48.8434 42.5223C48.8724 42.5223 48.9015 42.532 48.9305 42.5417C48.9499 42.5417 48.9305 42.532 48.9112 42.5223C48.9499 42.5223 49.0177 42.5126 49.0661 42.5223C49.1435 42.5417 49.0661 42.561 49.1532 42.5804C49.6083 42.7256 49.9858 43.0354 50.2376 43.4324C50.2376 43.4421 50.2376 43.4324 50.2182 43.4324C50.3054 43.5486 50.3538 43.6648 50.4119 43.781C50.4119 43.8197 50.4119 43.8294 50.4022 43.8487C50.4022 43.839 50.47 44.0036 50.499 44.1876C50.528 44.3716 50.499 44.5652 50.499 44.5652L50.5474 44.5942Z" fill="#1C1A1F"></path><path d="M52.5801 48.0812C52.7156 47.9747 52.8996 47.752 53.0642 47.5293C52.8221 47.8101 52.7156 47.9166 52.5801 48.0812Z" fill="#1C1A1F"></path><path d="M51.9609 48.4375C51.9609 48.4375 52.0578 48.5053 52.1159 48.544C52.0674 48.5053 52.019 48.4665 51.9609 48.4375Z" fill="#1C1A1F"></path><path d="M47.0704 39.3072L47.0414 39.3556C46.4314 39.5783 46.8381 39.3653 46.2862 39.6267C46.0926 39.7623 45.4148 40.1399 45.2793 40.3045C45.2793 40.3045 45.0566 40.4884 45.0566 40.4691C45.0082 40.5562 44.8339 40.6821 44.7177 40.8273C44.679 40.8854 44.7565 40.7983 44.7952 40.7692C44.6984 40.8757 44.6112 40.9822 44.5241 41.0984C44.4176 41.2243 44.3692 41.2436 44.4854 41.0984C44.3111 41.3114 43.9722 41.7568 43.7108 42.3861C43.4397 43.0154 43.2558 43.8287 43.2848 44.6517C43.3042 45.4746 43.5365 46.2879 43.856 46.9076C44.011 47.2174 44.1852 47.4885 44.3401 47.7015C44.4563 47.8564 44.3885 47.7693 44.4079 47.7886H44.4176C44.4176 47.7886 44.4176 47.7886 44.4176 47.7693C44.3885 47.7209 44.3595 47.6821 44.3498 47.6434C44.4854 47.808 44.4466 47.7596 44.4563 47.7693C44.4563 47.7693 44.4563 47.779 44.4757 47.7886C44.4563 47.7886 44.4466 47.7983 44.4466 47.7983C44.4079 47.8177 44.4466 47.7983 44.3498 47.8177L44.3014 47.8951L44.1659 47.9823C43.6624 48.4567 43.6334 48.5342 43.5849 48.5729C43.5462 48.6213 43.4978 48.631 43.1299 49.1151C42.7232 49.696 42.6264 50.0252 42.4522 50.3737C42.4715 50.3253 42.5587 50.1898 42.4909 50.3544C42.4521 50.3737 42.3263 50.8094 42.2779 50.8869C42.2488 50.974 42.2004 51.1483 42.1617 51.2935C42.123 51.4775 42.123 51.6033 42.1617 51.4775C42.0939 51.6033 42.1714 52.2714 42.1133 51.8744C42.1326 52.1068 42.2004 52.3198 42.2779 52.465C42.2391 52.3779 42.2101 52.2811 42.1811 52.1843C42.4328 52.9104 42.8491 53.2009 43.3139 53.3364C43.2267 53.3074 43.1396 53.259 43.0621 53.2202C43.4688 53.4235 43.8657 53.4042 44.0497 53.4235C43.8948 53.4526 43.7302 53.4332 43.5753 53.4235C44.3401 53.5301 44.8339 53.2396 45.2115 52.7458C45.1631 52.8039 45.1147 52.862 45.0663 52.9201C45.1341 52.8426 45.2309 52.7264 45.3277 52.5522C45.4245 52.3973 45.4923 52.1165 45.5213 52.0003C45.6085 51.6905 45.7731 51.3419 46.0054 51.0321C46.4605 50.3931 47.1866 50.0252 47.3996 49.9284C47.3319 49.9477 47.2544 49.9671 47.1866 49.9864C47.3028 49.9187 47.4287 49.8703 47.5545 49.8122C47.5061 49.8315 47.3996 49.9671 47.3609 49.9671C47.5545 49.8896 47.9806 49.7347 48.5421 49.7057C49.094 49.6669 49.7814 49.8025 50.3623 50.122C50.9529 50.4318 51.4177 50.945 51.6791 51.4194C51.8146 51.6517 51.8921 51.8841 51.9502 52.0778C51.9986 52.3101 52.1341 52.5715 52.2116 52.678C52.5117 53.0653 52.2309 52.7749 52.2213 52.7749C52.4246 53.0072 52.4923 53.0266 52.5311 53.0556C52.5795 53.0847 52.6085 53.1137 52.8312 53.2299C52.9571 53.288 52.7925 53.2396 52.7247 53.2009C52.928 53.3074 53.1314 53.3655 53.1507 53.3558C52.8796 53.2686 53.0055 53.2686 52.9087 53.2105C53.1023 53.2977 53.3153 53.3364 53.5283 53.3364L53.4993 53.3558C53.6348 53.3364 53.8866 53.3558 54.4191 53.046C54.8548 52.7652 55.1452 52.223 55.1259 51.6808C55.1259 51.5452 55.0968 51.4 55.0581 51.2838L54.9613 50.974C54.8935 50.7707 54.816 50.5674 54.7289 50.3737C54.7483 50.3737 54.8257 50.5383 54.8935 50.7029C54.8548 50.6061 54.8257 50.519 54.7483 50.335C54.816 50.5286 54.5837 50.0155 54.6418 50.1704C54.3319 49.6282 53.9059 48.9505 53.4896 48.5826C53.4606 48.5826 53.1023 48.5051 52.7731 48.4857C52.4343 48.4664 52.1148 48.4857 52.1051 48.5051C51.9986 48.4277 51.9018 48.3599 51.834 48.3115C51.863 48.3405 52.0954 48.5051 52.2213 48.5922H52.26C52.5408 48.8052 52.3181 48.6407 52.5795 48.873C52.5795 48.9021 52.3374 48.6891 52.1148 48.5342C52.3181 48.6794 52.4924 48.8633 52.5795 48.9118C52.7441 49.0763 52.5408 48.9117 52.7344 49.1151C52.8796 49.2506 53.0733 49.4346 53.2088 49.6282C53.5283 50.0833 53.722 50.3253 53.9156 50.7997L53.8866 50.7513C53.9447 50.9159 54.0996 51.2451 54.1673 51.5646C54.148 51.4775 54.148 51.4 54.1964 51.5646C54.2351 51.7873 54.1964 51.9519 54.0899 52.0778C54.0705 52.1262 54.0415 52.1746 54.0027 52.2133C53.8769 52.3489 53.4702 52.5134 53.1217 52.2327C53.0442 52.1649 52.9765 52.0778 52.928 51.9713C52.9184 51.9422 52.9087 51.9228 52.899 51.8841L52.8506 51.7195C52.8119 51.6033 52.7731 51.4872 52.7247 51.371C52.5311 50.9159 52.2503 50.4802 51.9018 50.1026C51.195 49.3571 50.2171 48.9214 49.3651 48.8052C48.5131 48.6794 47.7966 48.8343 47.4093 48.9602L47.4674 48.9408C46.8671 49.1054 46.141 49.483 45.531 50.122C45.2309 50.4415 44.9598 50.8288 44.7661 51.2548C44.6693 51.4581 44.5919 51.7195 44.5338 51.9035C44.495 52.0197 44.4273 52.1262 44.3401 52.2133C43.9722 52.6006 43.2654 52.3682 43.1589 51.8938C43.1299 51.7776 43.1202 51.6614 43.1396 51.5549C43.1686 51.4387 43.2267 51.2451 43.2751 51.1096C43.3816 50.8094 43.4978 50.5383 43.6237 50.306C43.7979 50.0252 44.04 49.6573 44.2724 49.4055C44.1465 49.5411 44.1755 49.483 44.2724 49.3668C44.9888 48.6213 44.2724 49.2797 45.0566 48.5729C45.2696 48.4083 45.5891 48.1856 45.957 47.9339C45.8118 47.7886 45.6569 47.624 45.4923 47.4498C45.4148 47.3626 45.3374 47.2755 45.2599 47.1787L45.1244 47.0044C44.9695 46.7914 44.8242 46.5493 44.6984 46.2783C44.4466 45.7457 44.3014 45.1067 44.2917 44.4871C44.2627 43.2284 44.8726 42.1925 45.1534 41.8439C45.4536 41.3598 46.0054 40.8951 46.4798 40.6143L46.4411 40.653C46.6832 40.4884 47.603 40.0237 48.6196 40.0334C49.6362 40.0043 50.5947 40.44 50.8755 40.624L50.798 40.5756C51.3305 40.866 51.2337 40.866 51.5919 41.1662C51.5726 41.0887 51.9695 41.4276 52.0954 41.5922H52.0857C52.289 41.8052 52.6957 42.3667 52.87 42.8412H52.8409C53.0345 43.2091 53.1604 43.9836 53.1507 44.2838C53.1895 44.9712 52.9377 46.0168 52.4536 46.7914C52.3278 46.9463 52.2019 47.0915 52.0567 47.2271L52.0083 47.2949C52.0083 47.2949 51.9889 47.595 52.0663 47.808C52.1341 48.0113 52.3568 48.1566 52.8796 47.6531V47.6821L53.0442 47.4498C53.2476 47.1787 53.296 47.0238 53.3056 47.0528C53.2282 47.1884 53.141 47.3142 53.0539 47.4498C53.2476 47.169 53.1314 47.3723 53.0539 47.4885C53.1217 47.382 53.1895 47.2852 53.2766 47.1593C53.3056 47.1012 53.2476 47.198 53.2088 47.2368C53.3056 47.0722 53.4025 46.8398 53.509 46.6365C53.6542 46.317 53.5574 46.6365 53.7123 46.2492C54.4965 44.2063 53.8962 41.7665 52.1922 40.3238C52.1632 40.2851 52.2019 40.3238 52.26 40.3626C51.7565 39.9269 51.2337 39.6171 50.6625 39.4041C50.5076 39.3363 50.4688 39.3072 50.4204 39.2782C50.4688 39.3072 49.6652 39.0168 48.7939 39.0071C48.3678 38.9974 47.9321 39.0458 47.603 39.1136C47.2835 39.1814 47.0608 39.2491 47.0511 39.2588L47.0704 39.3072Z" fill="#1C1A1F"></path><defs><clipPath id="clip0_65_387"><rect width="74" height="74" fill="white" transform="translate(2 2)"></rect></clipPath></defs></svg> 