<?xml version="1.0" encoding="UTF-8"?> <svg xmlns="http://www.w3.org/2000/svg" width="78" height="77" viewBox="0 0 78 77" fill="none"><path d="M75.7019 75.1982C74.7424 75.1537 73.0899 75.15 71.5234 75.1426C72.7296 75.1871 74.0101 75.2056 75.7019 75.1982Z" fill="#2C282F"></path><g clip-path="url(#clip0_65_385)"><path d="M34.098 75.8963L33.3613 75.8398C33.3754 75.8634 33.5584 75.8869 34.098 75.8963Z" fill="#2C282F"></path><path d="M75.7559 15.4414C75.7559 15.4979 75.7652 15.5638 75.7699 15.6156C75.7699 15.4932 75.7606 15.4508 75.7559 15.4414Z" fill="#2C282F"></path><path d="M5.43359 74.0512H5.47113C5.53212 74.0512 5.60719 74.0418 5.66349 74.0371L5.43359 74.0512Z" fill="#2C282F"></path><path d="M43.053 74.2009C33.1813 74.135 30.5633 73.8807 20.3303 73.9843C15.4508 73.9655 10.2428 74.022 5.47119 74.0549C5.31167 74.0643 5.14745 74.0785 4.97854 74.0926C4.89409 74.0926 4.80495 74.102 4.7158 74.1067C4.63604 74.1067 4.49998 74.1161 4.51874 74.1208C4.46244 74.135 4.39206 74.1444 4.31699 74.1491C4.31699 74.1067 4.31699 74.0596 4.3123 74.0126C4.3123 73.8525 4.3123 73.6877 4.3123 73.5229C4.3123 72.9391 4.3123 72.3459 4.3123 71.7621C4.3123 70.5898 4.29823 69.4458 4.23723 68.4713L4.34984 67.4308C4.29353 66.5033 4.256 65.4158 4.31699 64.4836L4.34984 64.5401C4.26538 63.156 4.31699 61.5929 4.27477 60.9055L4.30761 60.962L4.29353 59.2813L4.34045 59.5685C4.25131 57.1533 4.24192 54.6675 4.28415 52.4783L4.14809 52.6619C4.29823 47.9774 4.01671 46.2637 4.1997 42.0313L4.23254 42.0878C3.87127 36.7395 4.47652 33.6369 4.13401 28.1239C4.17624 28.8113 4.20439 27.8273 4.23723 27.8838C4.1997 25.3462 4.17624 22.6344 3.9088 22.5967C3.9088 20.7465 3.99325 21.0902 4.09648 20.8501C3.97918 20.8595 3.93226 19.2541 3.92288 17.8087L3.96979 18.4725L3.93226 14.3342L3.71174 15.1487C3.77743 12.9548 3.98387 14.5932 3.92757 12.4887L3.74459 12.5169C3.78212 9.4803 4.05894 7.70068 4.195 4.7629C4.195 4.54633 4.1997 4.33447 4.20439 4.1132C5.35389 4.1132 6.51278 4.1132 7.67636 4.10849C9.15899 4.09908 10.6463 4.08495 12.1383 4.07554C15.1177 4.04258 18.1111 4.00962 21.0716 3.97667C26.9974 3.91546 32.8153 3.88722 38.2297 4.04258L38.7271 4.17911C38.9429 4.38155 41.8519 3.88251 42.2835 4.06612L43.6019 3.97196C43.9726 4.00962 44.7514 4.04729 44.0946 4.09437C45.3145 4.10378 45.3426 4.07083 46.22 4.00962L47.529 4.13674C52.3335 4.23561 56.4201 3.99079 61.4732 4.04258C63.1904 4.1132 65.3346 4.14616 67.6759 4.15557C68.8441 4.15557 70.064 4.15557 71.3074 4.15086C71.9267 4.14616 72.5507 4.14145 73.1794 4.13674H73.6486L73.8691 4.12732L74.1225 4.11791C74.1929 7.64418 74.2585 11.0998 74.3101 13.7175C74.6104 23.0063 73.8081 33.8111 74.1553 43.326C74.1272 43.6367 74.1929 44.437 74.2116 44.4323L74.1835 53.1374C74.1835 53.1374 74.1084 95.3491 75.774 63.2784L75.8162 63.4949C75.9241 58.7305 75.9476 55.7315 75.7271 52.4453C75.9992 51.9274 75.7552 48.533 75.8444 47.4172L75.8678 47.5208C75.6614 44.6159 76.0414 41.5322 75.8538 38.731C75.8772 38.8392 75.9476 38.9005 75.9523 39.5454C75.9195 37.5022 75.8585 34.7104 76.0133 34.5597C75.9711 29.6822 76.0461 22.8792 75.7928 19.7531L75.835 19.965C75.6661 18.1853 75.8115 17.6628 75.7224 15.6713C75.7412 15.563 75.7552 15.4218 75.7599 15.4453C75.591 13.5056 75.7318 9.78631 75.6614 8.21856L75.7646 8.11498L75.7412 4.14616L75.7177 5.69979C75.6332 5.55384 75.6145 5.24782 75.6239 4.81469C75.6473 4.21207 75.6755 3.42583 75.7036 2.5219C75.3611 2.51249 74.9999 2.50307 74.6292 2.48895C74.282 2.48424 73.9207 2.47482 73.5548 2.47012C73.0199 2.46541 72.4522 2.47482 71.8704 2.51249C69.257 2.47482 66.5733 3.1104 63.8614 2.96916C62.5664 3.10569 65.0015 2.74789 63.0685 2.85146C63.0075 2.70081 63.9693 2.7573 63.472 2.6396C61.5718 2.71022 60.3566 2.48424 58.0153 2.58781L57.9215 2.47012C54.8671 2.68197 52.1552 2.31475 50.1236 2.5219C46.9754 2.62077 48.0123 2.17351 44.728 2.4042L43.4518 2.24413C42.0489 2.22059 42.4477 2.43716 40.89 2.36183C40.9839 2.26296 38.9241 2.2818 39.8344 2.18764C36.3108 2.03227 32.684 2.40891 28.0437 2.14526C27.035 2.33829 24.6984 2.2253 23.9477 2.37125C23.8211 2.2865 19.2653 2.35712 21.888 2.17351C22.1132 2.15939 22.512 2.15939 22.4839 2.19234L22.7982 2.07935C20.152 1.86279 17.9891 2.19705 15.371 2.1641C16.1452 2.20176 17.1821 2.19234 16.4877 2.27238L14.0573 2.25826L14.564 2.15939L10.9372 2.10289L11.4345 2.22059C9.66102 2.15939 9.037 1.95695 7.03827 2.12643C6.13274 2.22059 8.71796 2.2865 6.8459 2.32417C6.33918 2.30534 5.77147 2.2865 5.17091 2.26767C4.80025 2.25826 4.41552 2.24884 4.02141 2.23942C3.45838 2.23001 2.88128 2.22059 2.2948 2.21118C2.25727 4.26386 2.21035 6.50956 2.17281 8.55282C2.30888 8.27034 2.30419 9.08483 2.32764 9.92755L2.21035 10.0264C2.37456 13.2514 1.9523 11.2081 2.08367 14.4048L2.00391 14.1224L2.24788 14.9651C2.47778 17.8511 2.00391 16.5234 2.32295 19.7296C2.30419 18.4631 2.581 19.1316 2.52939 20.6947L2.41679 20.2992C2.44025 21.1655 2.48717 21.4527 2.46371 22.0271C2.40271 21.5139 2.29949 21.754 2.31826 23.0251L2.17751 22.173L2.38395 24.5741C2.26196 26.429 2.41679 29.3668 2.25727 30.1248C2.25727 30.1248 2.17751 34.1124 2.3558 35.0258C2.24788 34.2254 2.20566 36.4241 2.07898 35.7979C2.20096 36.8289 2.29949 39.8797 2.17281 41.1038L2.15874 40.8731C2.02737 45.388 2.34172 48.5989 2.17751 52.6525C2.31357 52.4688 2.2385 54.611 2.4121 54.079C2.5857 58.2738 2.06021 61.7247 2.59508 63.2407C2.62323 65.1474 2.4684 65.5005 2.44025 66.4892L2.4121 66.0325C2.45432 69.6059 2.45902 70.6463 2.44963 73.3016C2.45902 73.5041 2.4684 73.6783 2.48717 73.8431C2.50594 74.0738 2.5247 74.2856 2.53878 74.4928C2.57631 74.9353 2.61854 75.3355 2.65138 75.8345C3.00796 75.8157 3.40208 75.7969 3.86657 75.7922C4.09178 75.7922 4.33107 75.7922 4.5985 75.7875C4.79087 75.7875 5.002 75.7922 5.2319 75.7969C4.46713 75.8957 5.43366 75.8769 6.32042 75.8769C5.7527 75.891 5.5791 75.9287 6.74268 75.9946C6.9069 75.9617 7.16026 75.9428 7.39485 75.9287C7.40424 75.9381 7.45115 75.9428 7.42769 75.9522C8.90563 75.9193 8.64758 75.8863 7.96257 75.8722C7.99541 75.8581 7.93911 75.8392 7.72797 75.811C9.26221 75.9381 12.0023 75.8016 12.1899 75.9711C16.6331 75.9334 19.8095 75.7545 23.5067 75.6886C23.9243 75.778 23.0563 75.8534 21.9865 75.8863L24.6093 75.8534C24.5858 75.9805 23.1032 75.924 22.2962 75.9522C25.421 76.1547 28.7334 75.7498 32.3978 75.9334L33.1578 75.8345L33.3784 75.8534C33.369 75.8016 34.1901 75.731 34.7296 75.7121C35.2457 75.8204 34.6921 75.9664 36.5078 75.9569C37.9435 76.0652 40.5804 75.9052 42.4571 75.844C41.4437 75.8251 41.7721 75.7639 42.2084 75.7263C43.114 75.7263 43.6348 75.8345 44.3385 75.7828L44.4277 75.9334C44.0711 75.7922 46.7971 75.7828 47.1302 75.7215C47.6463 75.8298 45.7226 75.8157 45.4974 75.9005C49.1336 75.8863 47.3132 75.8957 50.9494 75.8816C52.8871 75.7686 50.5975 75.7404 51.5265 75.6133C53.239 75.585 54.9093 75.4814 56.8752 75.5709L56.2512 75.4391C59.4698 75.3355 61.3935 75.3543 63.5611 75.4861C87.5271 74.4127 68.6095 74.022 68.6095 74.022C59.1742 73.7301 54.3041 74.1161 43.0717 74.215L43.053 74.2009Z" fill="#2C282F"></path></g><path d="M49.5893 26.0801C49.275 26.0801 48.9703 26.2036 48.7513 26.4316C48.5323 26.6501 48.399 26.9541 48.399 27.2676C48.399 27.5811 48.5227 27.8851 48.7513 28.1036C48.9703 28.3221 49.275 28.4551 49.5893 28.4551C50.2178 28.4551 50.8272 28.7021 51.2748 29.1486C51.7223 29.5951 51.9699 30.1936 51.9699 30.8301V39.4467C51.1319 38.7532 50.1321 38.2877 49.0655 38.0787C47.999 37.8697 46.8944 37.9267 45.8564 38.2497C44.8184 38.5727 43.8757 39.1522 43.1139 39.9217C42.3521 40.7008 41.7998 41.6508 41.5046 42.6958H36.2386C35.9434 41.6508 35.3911 40.7008 34.6293 39.9217C33.8675 39.1427 32.9247 38.5727 31.8867 38.2497C30.8488 37.9267 29.7442 37.8697 28.6776 38.0787C27.6111 38.2877 26.6112 38.7627 25.7732 39.4467V30.8301C25.7732 30.2031 26.0208 29.5951 26.4684 29.1486C26.9159 28.7021 27.5159 28.4551 28.1539 28.4551C28.4681 28.4551 28.7729 28.3316 28.9919 28.1036C29.2109 27.8851 29.3442 27.5811 29.3442 27.2676C29.3442 26.9541 29.2204 26.6501 28.9919 26.4316C28.7729 26.2131 28.4681 26.0801 28.1539 26.0801C26.8874 26.0801 25.678 26.5836 24.7829 27.4671C23.8878 28.3601 23.3926 29.5666 23.3926 30.8301V44.4913C23.3926 46.1728 24.0496 47.7783 25.2114 48.9944C26.3732 50.2104 27.9634 50.9229 29.6394 50.9989C31.3249 51.0749 32.9628 50.5049 34.2388 49.4029C35.5149 48.3009 36.3052 46.7523 36.4576 45.0803H41.276C41.4284 46.7523 42.2283 48.3009 43.4948 49.4029C44.7613 50.5049 46.4087 51.0749 48.0942 50.9989C49.7797 50.9229 51.3605 50.2009 52.5222 48.9944C53.684 47.7783 54.3411 46.1728 54.3411 44.4913V30.8301C54.3411 29.5666 53.8364 28.3601 52.9508 27.4671C52.0556 26.5741 50.8463 26.0801 49.5798 26.0801H49.5893ZM29.9537 48.6429C29.1252 48.6429 28.3253 48.3959 27.6397 47.9398C26.954 47.4838 26.4208 46.8378 26.1065 46.0778C25.7923 45.3178 25.7066 44.4818 25.8685 43.6743C26.0303 42.8668 26.4303 42.1258 27.0112 41.5463C27.5921 40.9668 28.3348 40.5678 29.1442 40.4063C29.9537 40.2448 30.7916 40.3303 31.5535 40.6438C32.3153 40.9573 32.9628 41.4893 33.4199 42.1733C33.877 42.8573 34.1246 43.6648 34.1246 44.4818C34.1246 45.5838 33.6865 46.6383 32.9057 47.4173C32.1248 48.1964 31.0678 48.6334 29.9632 48.6334L29.9537 48.6429ZM47.8086 48.6429C46.9801 48.6429 46.1802 48.3959 45.4946 47.9398C44.8089 47.4838 44.2757 46.8378 43.9614 46.0778C43.6472 45.3178 43.5615 44.4818 43.7234 43.6743C43.8852 42.8668 44.2852 42.1258 44.8661 41.5463C45.4469 40.9668 46.1897 40.5678 46.9991 40.4063C47.8086 40.2448 48.6465 40.3303 49.4084 40.6438C50.1702 40.9573 50.8177 41.4893 51.2748 42.1733C51.7319 42.8573 51.9795 43.6648 51.9795 44.4818C51.9795 45.5838 51.5414 46.6383 50.7606 47.4173C49.9797 48.1964 48.9227 48.6334 47.8181 48.6334L47.8086 48.6429Z" fill="#1C1A1F"></path><path d="M48.0057 48.1093C47.9374 48.0898 47.8105 48.0801 47.6836 48.0605C47.7714 48.0898 47.869 48.1093 48.0057 48.1093Z" fill="#1C1A1F"></path><path d="M44.4033 44.0406L44.3642 44.0211C44.3935 43.738 44.413 43.943 44.4423 43.6892C44.4033 43.5818 44.5399 43.2695 44.5399 43.1817C44.5399 43.1817 44.5887 43.0645 44.5985 43.0743C44.5887 43.0255 44.6375 42.9474 44.6571 42.8693C44.6571 42.84 44.6375 42.8888 44.6278 42.8986L44.6961 42.7229C44.7351 42.6644 44.7547 42.6546 44.7254 42.7229C44.823 42.5082 45.1744 41.8933 45.7307 41.4638C46.2675 41.0148 46.941 40.7806 47.185 40.722C47.1167 40.722 46.9703 40.7708 46.902 40.7611C47.0289 40.7025 47.0972 40.7025 47.146 40.6732C47.2045 40.7123 47.4388 40.6147 47.5559 40.6537L47.595 40.6147H47.6633C48.2587 40.5561 47.7999 40.5854 48.327 40.5951C48.6296 40.6147 48.7857 40.5951 48.9517 40.6537C48.9224 40.6537 48.8638 40.6147 48.9517 40.6244C48.9517 40.6537 49.1664 40.6537 49.1957 40.6927C49.2738 40.7123 49.508 40.8001 49.4397 40.7415C49.4787 40.7708 49.6837 40.8684 49.547 40.8294C49.6154 40.8587 49.6837 40.8977 49.7325 40.9172L49.6447 40.8684C49.8789 40.9758 49.9863 41.0734 50.1522 41.132L50.0741 41.0734C50.2108 41.1515 50.3181 41.2296 50.3474 41.2979L50.2108 41.21C50.4255 41.3565 50.5426 41.4541 50.7085 41.5907L50.65 41.5419C50.7671 41.62 51.0794 41.9128 51.3234 42.2739C51.5772 42.6253 51.7334 43.0255 51.7919 43.1426V43.0157L51.87 43.2207C51.87 43.1914 51.7529 43.1426 51.7529 43.1231C51.831 43.3378 52.0262 44.0699 51.9188 44.8117C51.8408 45.5437 51.4796 46.2074 51.343 46.3733C51.2356 46.5197 51.2844 46.3733 51.2844 46.3733C51.177 46.5588 51.2551 46.4709 51.1478 46.6173C51.1087 46.6564 51.138 46.5978 51.1478 46.5685C51.099 46.6369 51.0502 46.6857 51.0599 46.6954C51.1282 46.6271 51.1282 46.6759 51.177 46.6564C51.1282 46.7149 51.0794 46.7833 51.0209 46.8418V46.8223C51.0209 46.8223 50.9721 46.9687 50.7964 47.1249C50.5036 47.3982 50.1522 47.6422 49.7911 47.8179C49.7911 47.7984 49.8594 47.7593 49.9277 47.7105C49.8789 47.7398 49.8106 47.7691 49.7618 47.7886C49.8594 47.7691 49.6154 47.8764 49.6934 47.8472C49.4494 48.0228 49.0688 48.0912 48.8248 48.1692C48.8443 48.2278 48.3465 49.0574 48.3172 49.1063C48.2196 49.1063 48.122 49.1063 48.0927 49.1063C48.122 49.116 48.3075 49.1258 48.4148 49.1063L48.4344 49.077C48.6686 49.0477 48.4929 49.0965 48.7174 49.0672C48.7369 49.0867 48.5222 49.1258 48.3367 49.1355C48.5027 49.1355 48.6784 49.1355 48.7369 49.0867C48.8931 49.077 48.7272 49.1258 48.9126 49.0965C49.0493 49.0672 49.2152 49.0086 49.3714 48.9794C49.752 48.9013 49.9179 48.7646 50.24 48.6377L50.2108 48.6573C50.3279 48.6182 50.5329 48.4913 50.7281 48.3742C50.6695 48.4035 50.6109 48.4133 50.7281 48.3449C50.9526 48.218 51.0794 48.1009 51.2356 47.9936L51.3527 47.8569C51.6846 47.5739 52.4361 46.7149 52.7094 45.6413C53.0315 44.5774 52.8461 43.455 52.7094 43.045V43.0743C52.5533 42.4203 52.0945 41.4638 51.3039 40.7708C50.5426 40.0583 49.5275 39.6972 48.8443 39.6191C48.6393 39.5605 48.3368 39.541 48.1123 39.5312C48.2391 39.541 48.1903 39.5605 48.0927 39.5605C47.4193 39.5898 48.0439 39.5605 47.3705 39.6386C46.9898 39.6972 46.043 39.9412 45.2915 40.5073C44.5204 41.0539 44.0129 41.864 43.8567 42.1763C43.7201 42.5277 43.5346 42.9572 43.4858 43.3281V43.289C43.4468 43.4842 43.3199 44.1382 43.398 44.8019C43.4565 45.4656 43.7103 46.1098 43.8177 46.305L43.7981 46.2464C43.9934 46.5978 43.9348 46.5685 44.091 46.8418C44.091 46.7833 44.3057 47.0566 44.3935 47.1542H44.3838C44.5009 47.3103 44.823 47.6227 45.0768 47.8179H45.0572C45.272 47.9936 45.6819 48.2766 45.8576 48.3645C46.2285 48.5889 46.8727 48.872 47.4681 48.9208C47.595 48.9598 47.7121 48.9891 47.8487 49.0184H47.9073C47.9073 49.0184 48.4539 48.2864 47.8097 48.1009V48.0814H47.6926C47.5462 48.0521 47.4681 48.0619 47.4876 48.0424L47.6926 48.0716C47.5462 48.0424 47.6535 48.0521 47.7121 48.0424C47.6535 48.0326 47.595 48.0228 47.5462 48.0131C47.5169 48.0131 47.5657 48.0228 47.5852 48.0326C47.5071 48.0326 47.39 48.0326 47.2924 47.9936C47.146 47.9545 47.2924 47.9545 47.1167 47.9155C46.209 47.6422 45.4574 47.0468 44.9596 46.2562C44.9596 46.2367 44.9596 46.2562 44.9889 46.2757C44.8327 46.0415 44.7254 45.8072 44.6278 45.573C44.618 45.5046 44.6278 45.4754 44.6278 45.4558C44.6278 45.4754 44.5009 45.1435 44.4619 44.7824C44.4131 44.4212 44.4423 44.0406 44.4423 44.0406H44.4033Z" fill="#1C1A1F"></path><path d="M29.7049 48.1093C29.6366 48.0898 29.5097 48.0801 29.3828 48.0605C29.4707 48.0898 29.5683 48.1093 29.7049 48.1093Z" fill="#1C1A1F"></path><path d="M26.1025 44.0406L26.0635 44.0211C26.0927 43.738 26.1123 43.943 26.1415 43.6892C26.1025 43.5818 26.2392 43.2695 26.2392 43.1817C26.2392 43.1817 26.288 43.0645 26.2977 43.0743C26.288 43.0255 26.3368 42.9474 26.3563 42.8693C26.3563 42.84 26.3368 42.8888 26.327 42.8986L26.3953 42.7229C26.4344 42.6644 26.4539 42.6546 26.4246 42.7229C26.5222 42.5082 26.8736 41.8933 27.4299 41.4638C27.9668 41.0148 28.6402 40.7806 28.8842 40.722C28.8159 40.722 28.6695 40.7708 28.6012 40.7611C28.7281 40.7025 28.7964 40.7025 28.8452 40.6732C28.9038 40.7123 29.138 40.6147 29.2551 40.6537L29.2942 40.6147H29.3625C29.9579 40.5561 29.4991 40.5854 30.0262 40.5951C30.3288 40.6147 30.4849 40.5951 30.6509 40.6537C30.6216 40.6537 30.563 40.6147 30.6509 40.6244C30.6509 40.6537 30.8656 40.6537 30.8949 40.6927C30.973 40.7123 31.2072 40.8001 31.1389 40.7415C31.1779 40.7708 31.3829 40.8684 31.2463 40.8294C31.3146 40.8587 31.3829 40.8977 31.4317 40.9172L31.3439 40.8684C31.5781 40.9758 31.6855 41.0734 31.8514 41.132L31.7733 41.0734C31.91 41.1515 32.0173 41.2296 32.0466 41.2979L31.91 41.21C32.1247 41.3565 32.2418 41.4541 32.4078 41.5907L32.3492 41.5419C32.4663 41.62 32.7787 41.9128 33.0227 42.2739C33.2764 42.6253 33.4326 43.0255 33.4912 43.1426V43.0157L33.5692 43.2207C33.5692 43.1914 33.4521 43.1426 33.4521 43.1231C33.5302 43.3378 33.7254 44.0699 33.6181 44.8117C33.54 45.5437 33.1788 46.2074 33.0422 46.3733C32.9348 46.5197 32.9836 46.3733 32.9836 46.3733C32.8763 46.5588 32.9543 46.4709 32.847 46.6173C32.8079 46.6564 32.8372 46.5978 32.847 46.5685C32.7982 46.6369 32.7494 46.6857 32.7591 46.6954C32.8275 46.6271 32.8275 46.6759 32.8763 46.6564C32.8275 46.7149 32.7787 46.7833 32.7201 46.8418V46.8223C32.7201 46.8223 32.6713 46.9687 32.4956 47.1249C32.2028 47.3982 31.8514 47.6422 31.4903 47.8179C31.4903 47.7984 31.5586 47.7593 31.6269 47.7105C31.5781 47.7398 31.5098 47.7691 31.461 47.7886C31.5586 47.7691 31.3146 47.8764 31.3927 47.8472C31.1487 48.0228 30.768 48.0912 30.524 48.1692C30.5435 48.2278 30.0457 49.0574 30.0164 49.1063C29.9188 49.1063 29.8212 49.1063 29.792 49.1063C29.8212 49.116 30.0067 49.1258 30.114 49.1063L30.1336 49.077C30.3678 49.0477 30.1921 49.0965 30.4166 49.0672C30.4361 49.0867 30.2214 49.1258 30.036 49.1355C30.2019 49.1355 30.3776 49.1355 30.4361 49.0867C30.5923 49.077 30.4264 49.1258 30.6118 49.0965C30.7485 49.0672 30.9144 49.0086 31.0706 48.9794C31.4512 48.9013 31.6172 48.7646 31.9393 48.6377L31.91 48.6573C32.0271 48.6182 32.2321 48.4913 32.4273 48.3742C32.3687 48.4035 32.3102 48.4133 32.4273 48.3449C32.6518 48.218 32.7787 48.1009 32.9348 47.9936L33.0519 47.8569C33.3838 47.5739 34.1354 46.7149 34.4086 45.6413C34.7307 44.5774 34.5453 43.455 34.4086 43.045V43.0743C34.2525 42.4203 33.7937 41.4638 33.0031 40.7708C32.2418 40.0583 31.2267 39.6972 30.5435 39.6191C30.3385 39.5605 30.036 39.541 29.8115 39.5312C29.9384 39.541 29.8896 39.5605 29.792 39.5605C29.1185 39.5898 29.7432 39.5605 29.0697 39.6386C28.689 39.6972 27.7423 39.9412 26.9907 40.5073C26.2196 41.0539 25.7121 41.864 25.5559 42.1763C25.4193 42.5277 25.2338 42.9572 25.185 43.3281V43.289C25.146 43.4842 25.0191 44.1382 25.0972 44.8019C25.1557 45.4656 25.4095 46.1098 25.5169 46.305L25.4974 46.2464C25.6926 46.5978 25.634 46.5685 25.7902 46.8418C25.7902 46.7833 26.0049 47.0566 26.0927 47.1542H26.083C26.2001 47.3103 26.5222 47.6227 26.776 47.8179H26.7565C26.9712 47.9936 27.3811 48.2766 27.5568 48.3645C27.9277 48.5889 28.5719 48.872 29.1673 48.9208C29.2942 48.9598 29.4113 48.9891 29.5479 49.0184H29.6065C29.6065 49.0184 30.1531 48.2864 29.5089 48.1009V48.0814H29.3918C29.2454 48.0521 29.1673 48.0619 29.1868 48.0424L29.3918 48.0716C29.2454 48.0424 29.3527 48.0521 29.4113 48.0424C29.3527 48.0326 29.2942 48.0228 29.2454 48.0131C29.2161 48.0131 29.2649 48.0228 29.2844 48.0326C29.2063 48.0326 29.0892 48.0326 28.9916 47.9936C28.8452 47.9545 28.9916 47.9545 28.8159 47.9155C27.9082 47.6422 27.1566 47.0468 26.6588 46.2562C26.6588 46.2367 26.6588 46.2562 26.6881 46.2757C26.532 46.0415 26.4246 45.8072 26.327 45.573C26.3172 45.5046 26.327 45.4754 26.327 45.4558C26.327 45.4754 26.2001 45.1435 26.1611 44.7824C26.1123 44.4212 26.1415 44.0406 26.1415 44.0406H26.1025Z" fill="#1C1A1F"></path><path d="M49.1763 25.1055C48.8737 25.2324 48.493 25.5447 48.3173 26.0327C48.1319 26.511 48.1807 27.1259 48.493 27.5846C48.2685 27.2332 48.1612 26.7745 48.2588 26.3158C48.3466 25.857 48.6492 25.3788 49.1763 25.1152V25.1055Z" fill="#1C1A1F"></path><path d="M48.5137 27.5937C48.5137 27.5937 48.5137 27.6035 48.5234 27.6035C48.5234 27.5937 48.5039 27.584 48.5039 27.5742V27.5937H48.5137Z" fill="#1C1A1F"></path><path d="M50.4355 25.9824C50.6112 26.0019 50.7967 26.041 50.9919 26.08C50.8064 26.0312 50.621 25.9922 50.4355 25.9824Z" fill="#1C1A1F"></path><path d="M33.4629 38.0273L33.336 37.998C32.4576 37.5295 32.3014 37.5197 32.1843 37.4612C32.0672 37.4221 31.9793 37.3343 31.0716 37.1586C30.7105 37.1196 29.9492 37.0219 29.1879 37.0903C28.4363 37.1391 27.7043 37.344 27.4115 37.4709C27.4115 37.4514 26.5818 37.793 26.6306 37.7637C26.4061 37.8906 26.2988 37.959 26.1231 38.0566C26.1036 38.0566 26.0938 38.0663 26.084 38.0858C26.0645 38.1054 26.084 38.0956 26.084 38.1054L26.045 38.1346C26.045 38.1346 26.045 38.0956 26.0352 38.0761C26.0352 38.0175 26.0645 38.0273 26.0645 38.0468C26.0645 37.3148 26.0645 35.8995 26.0743 34.1329C26.0743 33.1763 26.0743 32.1222 26.0743 31.0193C26.0743 30.7557 26.0743 30.4824 26.0743 30.2092C26.084 29.9944 26.1328 29.7797 26.2207 29.5747C26.3866 29.1745 26.7087 28.8232 27.0991 28.628C27.2943 28.5304 27.5091 28.462 27.7238 28.4425C27.8507 28.423 28.3973 28.4425 28.7584 28.2375C29.5295 27.8666 29.9199 26.9199 29.6759 26.1293C29.4611 25.3289 28.6315 24.7823 27.8897 24.8311C27.3041 24.8311 26.7282 24.9385 26.2109 25.1142C25.1763 25.4656 24.3564 26.0805 23.8196 26.7149C23.273 27.3493 22.9802 27.9838 22.824 28.423C22.9704 27.9545 23.5854 26.9394 23.9367 26.6564C23.3023 27.4274 23.0973 27.8666 22.9412 28.2668C22.8436 28.4328 22.6484 28.9501 22.5703 29.5454C22.4824 30.1604 22.5215 30.7362 22.4824 31.0681L22.5117 31.3218L22.4922 31.7708C22.5215 35.7238 22.5117 32.6785 22.4922 36.1826C22.4922 38.2127 22.541 39.179 22.5215 40.3015C22.5215 40.1355 22.541 39.6865 22.5507 40.2136C22.5215 40.3015 22.5703 41.6094 22.5507 41.8729C22.5507 42.3902 22.5507 44.0592 22.5898 43.4931C22.5898 43.6981 22.58 44.0885 22.5703 44.3813C22.5703 44.7034 22.5703 44.8596 22.5507 44.3813C22.5507 44.9279 22.6191 45.4452 22.7167 45.8259C22.6679 45.6014 22.6386 45.3671 22.6093 45.1426C22.8728 46.9483 23.4097 47.8658 24.1319 48.793C23.9953 48.6174 23.8684 48.4319 23.7513 48.2367C24.3467 49.1542 25.0494 49.7496 25.3715 50.0326C25.0787 49.8081 24.7956 49.5544 24.5321 49.2908C25.8205 50.5694 26.8844 51.0575 28.3387 51.3796C28.163 51.3405 27.9873 51.3015 27.8214 51.2527C28.2801 51.3698 29.2659 51.5943 30.4957 51.4674C31.7256 51.3503 33.1701 50.8232 34.3023 49.8667C35.4541 48.9297 36.2349 47.6218 36.5765 46.4701C36.6644 46.187 36.7327 45.904 36.7815 45.6404C36.7912 45.5623 36.801 45.494 36.8108 45.4257C36.8108 45.3964 36.8108 45.3476 36.8303 45.3378C37.0938 45.3378 37.3085 45.3281 37.455 45.3183C37.2109 45.3183 36.8986 45.2988 36.8693 45.289L38.1187 45.2695C37.9527 45.2695 37.4354 45.3574 37.2988 45.3476C37.6794 45.3476 38.2553 45.3476 38.9776 45.3476C39.3387 45.3476 39.7389 45.3476 40.1684 45.3476C40.3831 45.3476 40.6076 45.3476 40.8418 45.3476H40.9687C40.9687 45.3476 41.037 45.3476 41.0273 45.3867L41.0468 45.5135C41.0663 45.6404 41.0956 45.7771 41.1249 45.904C41.1834 46.1675 41.2615 46.431 41.3591 46.6946C41.5543 47.2216 41.8081 47.7487 42.14 48.2465C42.7939 49.242 43.7504 50.0912 44.8631 50.6475C45.9661 51.2136 47.2252 51.4576 48.4062 51.3991C49.5872 51.3405 50.6901 50.9891 51.5783 50.4914C53.3742 49.4763 54.2136 47.9927 54.526 47.3387C55.0042 46.2358 54.6529 47.1533 54.6529 47.1728C54.9262 46.4896 54.9457 46.3334 54.9749 46.2065C54.9945 46.0796 55.0433 45.982 55.1506 45.3671C55.1994 45.0353 55.1702 45.4452 55.1311 45.6307C55.2287 45.0938 55.258 44.5863 55.2483 44.5375C55.1995 45.2207 55.1799 44.9279 55.1214 45.211C55.1994 44.6839 55.1799 44.1471 55.1897 43.6591L55.2092 43.7274C55.2092 43.3955 55.1506 42.8782 55.1604 41.4044C55.1604 38.9057 55.1604 36.2118 55.1604 33.7034C55.1702 33.7424 55.1799 34.2695 55.1897 34.7966C55.1897 34.4647 55.1897 33.9962 55.1897 33.6351C55.1702 34.2402 55.1702 32.5809 55.1604 33.0592C55.1311 32.132 55.1409 31.1071 55.1311 30.053C55.0921 28.9501 54.6626 27.9155 54.1356 27.2225C54.077 27.1737 53.345 26.5392 52.5251 26.2659C52.1151 26.1195 51.715 26.0512 51.4124 26.0317C51.1098 26.0122 50.9146 26.0317 50.9146 26.0414C50.4754 25.9341 50.0264 25.9146 49.8898 25.9146C50.0069 25.9146 50.8853 25.9926 51.3245 26.1683H51.4124C51.9199 26.3635 51.959 26.4221 52.0175 26.4514C52.0663 26.4904 52.1249 26.5002 52.5446 26.8125C52.5836 26.8613 51.8028 26.2562 50.9536 26.0805C51.7052 26.2659 52.3396 26.7149 52.5836 26.8906C53.1107 27.3786 52.5251 26.8418 53.1205 27.4567C53.5304 27.9057 53.9501 28.6182 54.0868 29.321C54.1844 29.7407 54.1941 30.0823 54.1941 30.4824C54.1941 30.8729 54.1941 31.2438 54.2039 31.6049C54.2039 32.3272 54.2234 33.0202 54.2039 33.9084V33.7132C54.1941 34.3964 54.1844 35.5384 54.1844 36.6999C54.1844 36.3778 54.2039 36.0947 54.2136 36.7779C54.2136 38.0956 54.2039 38.896 54.1941 39.911L54.2136 40.8188V43.0832C54.2136 43.5419 54.2136 44.0397 54.2136 44.5668C54.1941 45.0548 54.1063 45.5819 53.9501 46.0992C53.6378 47.1435 52.9838 48.1977 52.0371 48.998C51.0903 49.7984 49.8605 50.3352 48.5721 50.4328C47.2935 50.5402 45.9758 50.2376 44.9119 49.5934C43.8383 48.959 43.0184 48.0317 42.5304 47.0459C42.2864 46.5579 42.1107 46.0504 42.0131 45.5721L41.974 45.3867L41.9252 45.1134C41.896 44.8693 41.8667 44.6351 41.8276 44.4008C41.6227 44.3716 41.3689 44.4008 41.1444 44.3813C40.9785 44.3813 40.8125 44.3813 40.6564 44.3813C39.7291 44.3813 38.9483 44.3813 38.3822 44.3813H38.5579C38.1284 44.3813 37.6599 44.3813 37.1817 44.3813C36.7912 44.3813 36.3911 44.3813 35.9811 44.3813C35.9518 44.6156 35.9226 44.8596 35.8933 45.1036L35.8542 45.3769L35.8152 45.5526C35.62 46.5189 35.1515 47.5047 34.4195 48.3441C33.6874 49.1835 32.6723 49.8569 31.5304 50.1986C30.3884 50.5402 29.1098 50.5499 27.9288 50.179C26.7575 49.8179 25.6936 49.0956 24.9323 48.1586C24.171 47.2216 23.7122 46.0796 23.5853 44.9572C23.517 44.4106 23.5463 43.8055 23.5366 43.2296C23.5366 42.6537 23.5366 42.0876 23.5366 41.541C23.5366 40.4576 23.5366 39.4523 23.5268 38.5543C23.5268 37.3636 23.5463 35.919 23.5561 34.7673C23.5463 35.4115 23.5268 35.187 23.5268 34.6892C23.5268 31.1754 23.5073 34.455 23.4975 30.8924C23.4975 30.3556 23.4487 29.7211 23.6634 28.9989C23.8684 28.2766 24.3076 27.4762 25.0397 26.8516C25.7619 26.2269 26.7673 25.7974 27.8507 25.7877C28.2801 25.7486 28.6315 26.0414 28.6998 26.4319C28.7779 26.8223 28.5046 27.2322 28.1142 27.3201C27.9971 27.3591 27.5286 27.3201 27.2065 27.4372C26.8551 27.525 26.533 27.6812 26.2402 27.8959C25.6643 28.3156 25.2544 28.9403 25.108 29.6235C25.0299 29.9651 25.0397 30.3165 25.0397 30.5801C25.0397 30.8631 25.0397 31.1462 25.0397 31.4195C25.0397 31.9758 25.0397 32.5029 25.0397 33.0202C25.0397 35.0601 25.0299 36.7194 25.0201 37.6369C25.0201 38.4275 25.0397 39.218 25.0494 40.0282C25.352 39.7842 25.6643 39.5401 25.9767 39.2961C26.2695 39.0619 26.6599 38.8276 26.7673 38.7788C27.1089 38.5934 27.4603 38.4372 27.8214 38.3201C28.5437 38.0761 29.2952 37.9882 29.9687 38.0078H29.793C30.3005 38.0078 31.5011 38.0761 32.7992 38.7886C33.4434 39.14 34.0778 39.6475 34.6147 40.3015C34.8782 40.6236 35.1222 40.9847 35.3174 41.3653C35.415 41.5508 35.5029 41.7558 35.5907 41.951C35.6395 42.0779 35.6493 42.0974 35.7176 42.3121L35.8933 42.8977C38.1479 42.8977 40.3538 42.8977 41.9643 42.8977C42.0228 42.7025 42.0814 42.5073 42.14 42.3316L42.179 42.195L42.2083 42.1267L42.2571 41.99C42.3254 41.8143 42.3937 41.6582 42.4621 41.5215C42.5987 41.2385 42.7353 41.0237 42.833 40.8578L42.667 41.1116C43.1648 40.2722 43.4967 39.9891 43.7602 39.7354C44.0335 39.4913 44.2775 39.2766 44.9315 38.8862C44.8338 38.9252 45.1364 38.7105 45.5659 38.5153C45.9953 38.3103 46.5517 38.1444 46.864 38.0956H46.8445C47.313 38.0078 48.1036 37.9101 48.9625 38.0273C49.392 38.0858 49.8312 38.1932 50.2509 38.3396C50.4559 38.4177 50.6608 38.5055 50.856 38.5934C50.9536 38.6422 51.0415 38.691 51.1391 38.7398L51.2757 38.8179L51.5002 38.9643L51.4026 38.9252C51.7735 39.1497 52.242 39.5304 52.7105 39.9013C52.7105 38.1932 52.7105 35.9678 52.7105 34.9918C52.7105 33.8303 52.7203 32.3467 52.7301 30.785V30.1799C52.7301 29.9456 52.691 29.7114 52.6324 29.4869C52.5056 29.0379 52.2713 28.6084 51.9395 28.2668C51.6076 27.9252 51.1977 27.6714 50.7487 27.5348C50.5242 27.4665 50.2997 27.4274 50.0655 27.4079H49.7922C49.7238 27.3884 49.6653 27.3786 49.5969 27.3591C49.1675 27.1932 48.982 26.6466 49.187 26.2757C49.2065 26.2171 49.2456 26.1683 49.2749 26.1195C49.2749 26.1195 49.3041 25.9926 49.4213 25.8365C49.5286 25.6803 49.7336 25.5339 49.88 25.4363C50.0166 25.3387 50.0655 25.2216 49.7531 25.1435C49.5872 25.1142 49.3041 25.1142 48.9625 25.3094C48.6307 25.4949 48.211 25.9536 48.2207 26.6759L48.2012 26.588C48.2012 26.9589 48.3281 27.3396 48.5526 27.6324C48.9723 28.179 49.5286 28.2766 49.8214 28.2863C50.0557 28.2863 50.0947 28.2961 50.0752 28.3059C49.9581 28.2961 49.5872 28.3059 49.3041 28.1985C49.0113 28.0911 48.7576 27.9057 48.5623 27.6714C49.0211 28.1692 49.187 28.1302 49.0504 28.1009C48.9235 28.0521 48.6209 27.8276 48.4745 27.6031C48.8063 28.0814 49.3725 28.3351 49.8312 28.3449C50.0752 28.3449 49.6457 28.3449 49.4213 28.2668C49.5774 28.3156 49.8605 28.3254 49.9581 28.3254C50.0752 28.3254 50.2119 28.3449 50.3387 28.3644C50.5925 28.423 50.8561 28.5401 51.0513 28.6963C51.3636 28.9501 51.3441 28.9891 51.3636 29.0086C51.3636 29.0379 51.4221 29.0574 51.6369 29.4674C51.7735 29.7895 51.8223 30.053 51.8028 30.4727V31.722C51.8028 32.5517 51.8028 33.3813 51.793 34.2109V36.6901L51.7833 37.9297V38.037C51.7833 38.037 51.7833 38.0663 51.7833 38.0761C51.754 38.0566 51.7638 38.0566 51.715 38.0273C51.3929 37.8418 51.0513 37.6759 50.6999 37.5393C49.9971 37.266 49.2553 37.1 48.494 37.0512C46.9811 36.9536 45.4292 37.3538 44.1409 38.1932C44.0042 38.2713 44.1604 38.1639 44.3263 38.0663C43.4869 38.5739 42.8037 39.218 42.2571 39.9403C41.9838 40.3015 41.7495 40.6821 41.5543 41.0823C41.3689 41.4337 41.1444 42.0681 41.203 41.9217H41.1932C41.242 41.9217 41.0175 41.9217 40.9101 41.9022C40.8125 41.9022 40.7345 41.8924 40.6661 41.8827C40.4709 41.8827 38.7336 41.8827 36.6253 41.9022L36.596 41.8338C36.5375 41.6777 36.4789 41.5215 36.4106 41.3653C36.2739 41.0628 36.1178 40.77 35.9518 40.4967C35.62 39.9501 35.2296 39.4816 34.8587 39.1204C34.1071 38.3884 33.4532 38.0468 33.4239 38.0175L33.4629 38.0273Z" fill="#1C1A1F"></path><defs><clipPath id="clip0_65_385"><rect width="74" height="74" fill="white" transform="translate(2 2)"></rect></clipPath></defs></svg> 