<?xml version="1.0" encoding="UTF-8"?> <svg xmlns="http://www.w3.org/2000/svg" width="78" height="77" viewBox="0 0 78 77" fill="none"><path d="M75.7019 75.1982C74.7424 75.1537 73.0899 75.15 71.5234 75.1426C72.7296 75.1871 74.0101 75.2056 75.7019 75.1982Z" fill="#2C282F"></path><g clip-path="url(#clip0_65_386)"><path d="M34.098 75.8963L33.3613 75.8398C33.3754 75.8634 33.5584 75.8869 34.098 75.8963Z" fill="#2C282F"></path><path d="M75.7559 15.4414C75.7559 15.4979 75.7652 15.5638 75.7699 15.6156C75.7699 15.4932 75.7606 15.4508 75.7559 15.4414Z" fill="#2C282F"></path><path d="M5.43359 74.0512H5.47113C5.53212 74.0512 5.60719 74.0418 5.66349 74.0371L5.43359 74.0512Z" fill="#2C282F"></path><path d="M43.053 74.2009C33.1813 74.135 30.5633 73.8807 20.3303 73.9843C15.4508 73.9655 10.2428 74.022 5.47119 74.0549C5.31167 74.0643 5.14745 74.0785 4.97854 74.0926C4.89409 74.0926 4.80495 74.102 4.7158 74.1067C4.63604 74.1067 4.49998 74.1161 4.51874 74.1208C4.46244 74.135 4.39206 74.1444 4.31699 74.1491C4.31699 74.1067 4.31699 74.0596 4.3123 74.0126C4.3123 73.8525 4.3123 73.6877 4.3123 73.5229C4.3123 72.9391 4.3123 72.3459 4.3123 71.7621C4.3123 70.5898 4.29823 69.4458 4.23723 68.4713L4.34984 67.4308C4.29353 66.5033 4.256 65.4158 4.31699 64.4836L4.34984 64.5401C4.26538 63.156 4.31699 61.5929 4.27477 60.9055L4.30761 60.962L4.29353 59.2813L4.34045 59.5685C4.25131 57.1533 4.24192 54.6675 4.28415 52.4783L4.14809 52.6619C4.29823 47.9774 4.01671 46.2637 4.1997 42.0313L4.23254 42.0878C3.87127 36.7395 4.47652 33.6369 4.13401 28.1239C4.17624 28.8113 4.20439 27.8273 4.23723 27.8838C4.1997 25.3462 4.17624 22.6344 3.9088 22.5967C3.9088 20.7465 3.99325 21.0902 4.09648 20.8501C3.97918 20.8595 3.93226 19.2541 3.92288 17.8087L3.96979 18.4725L3.93226 14.3342L3.71174 15.1487C3.77743 12.9548 3.98387 14.5932 3.92757 12.4887L3.74459 12.5169C3.78212 9.4803 4.05894 7.70068 4.195 4.7629C4.195 4.54633 4.1997 4.33447 4.20439 4.1132C5.35389 4.1132 6.51278 4.1132 7.67636 4.10849C9.15899 4.09908 10.6463 4.08495 12.1383 4.07554C15.1177 4.04258 18.1111 4.00962 21.0716 3.97667C26.9974 3.91546 32.8153 3.88722 38.2297 4.04258L38.7271 4.17911C38.9429 4.38155 41.8519 3.88251 42.2835 4.06612L43.6019 3.97196C43.9726 4.00962 44.7514 4.04729 44.0946 4.09437C45.3145 4.10378 45.3426 4.07083 46.22 4.00962L47.529 4.13674C52.3335 4.23561 56.4201 3.99079 61.4732 4.04258C63.1904 4.1132 65.3346 4.14616 67.6759 4.15557C68.8441 4.15557 70.064 4.15557 71.3074 4.15086C71.9267 4.14616 72.5507 4.14145 73.1794 4.13674H73.6486L73.8691 4.12732L74.1225 4.11791C74.1929 7.64418 74.2585 11.0998 74.3101 13.7175C74.6104 23.0063 73.8081 33.8111 74.1553 43.326C74.1272 43.6367 74.1929 44.437 74.2116 44.4323L74.1835 53.1374C74.1835 53.1374 74.1084 95.3491 75.774 63.2784L75.8162 63.4949C75.9241 58.7305 75.9476 55.7315 75.7271 52.4453C75.9992 51.9274 75.7552 48.533 75.8444 47.4172L75.8678 47.5208C75.6614 44.6159 76.0414 41.5322 75.8538 38.731C75.8772 38.8392 75.9476 38.9005 75.9523 39.5454C75.9195 37.5022 75.8585 34.7104 76.0133 34.5597C75.9711 29.6822 76.0461 22.8792 75.7928 19.7531L75.835 19.965C75.6661 18.1853 75.8115 17.6628 75.7224 15.6713C75.7412 15.563 75.7552 15.4218 75.7599 15.4453C75.591 13.5056 75.7318 9.78631 75.6614 8.21856L75.7646 8.11498L75.7412 4.14616L75.7177 5.69979C75.6332 5.55384 75.6145 5.24782 75.6239 4.81469C75.6473 4.21207 75.6755 3.42583 75.7036 2.5219C75.3611 2.51249 74.9999 2.50307 74.6292 2.48895C74.282 2.48424 73.9207 2.47482 73.5548 2.47012C73.0199 2.46541 72.4522 2.47482 71.8704 2.51249C69.257 2.47482 66.5733 3.1104 63.8614 2.96916C62.5664 3.10569 65.0015 2.74789 63.0685 2.85146C63.0075 2.70081 63.9693 2.7573 63.472 2.6396C61.5718 2.71022 60.3566 2.48424 58.0153 2.58781L57.9215 2.47012C54.8671 2.68197 52.1552 2.31475 50.1236 2.5219C46.9754 2.62077 48.0123 2.17351 44.728 2.4042L43.4518 2.24413C42.0489 2.22059 42.4477 2.43716 40.89 2.36183C40.9839 2.26296 38.9241 2.2818 39.8344 2.18764C36.3108 2.03227 32.684 2.40891 28.0437 2.14526C27.035 2.33829 24.6984 2.2253 23.9477 2.37125C23.8211 2.2865 19.2653 2.35712 21.888 2.17351C22.1132 2.15939 22.512 2.15939 22.4839 2.19234L22.7982 2.07935C20.152 1.86279 17.9891 2.19705 15.371 2.1641C16.1452 2.20176 17.1821 2.19234 16.4877 2.27238L14.0573 2.25826L14.564 2.15939L10.9372 2.10289L11.4345 2.22059C9.66102 2.15939 9.037 1.95695 7.03827 2.12643C6.13274 2.22059 8.71796 2.2865 6.8459 2.32417C6.33918 2.30534 5.77147 2.2865 5.17091 2.26767C4.80025 2.25826 4.41552 2.24884 4.02141 2.23942C3.45838 2.23001 2.88128 2.22059 2.2948 2.21118C2.25727 4.26386 2.21035 6.50956 2.17281 8.55282C2.30888 8.27034 2.30419 9.08483 2.32764 9.92755L2.21035 10.0264C2.37456 13.2514 1.9523 11.2081 2.08367 14.4048L2.00391 14.1224L2.24788 14.9651C2.47778 17.8511 2.00391 16.5234 2.32295 19.7296C2.30419 18.4631 2.581 19.1316 2.52939 20.6947L2.41679 20.2992C2.44025 21.1655 2.48717 21.4527 2.46371 22.0271C2.40271 21.5139 2.29949 21.754 2.31826 23.0251L2.17751 22.173L2.38395 24.5741C2.26196 26.429 2.41679 29.3668 2.25727 30.1248C2.25727 30.1248 2.17751 34.1124 2.3558 35.0258C2.24788 34.2254 2.20566 36.4241 2.07898 35.7979C2.20096 36.8289 2.29949 39.8797 2.17281 41.1038L2.15874 40.8731C2.02737 45.388 2.34172 48.5989 2.17751 52.6525C2.31357 52.4688 2.2385 54.611 2.4121 54.079C2.5857 58.2738 2.06021 61.7247 2.59508 63.2407C2.62323 65.1474 2.4684 65.5005 2.44025 66.4892L2.4121 66.0325C2.45432 69.6059 2.45902 70.6463 2.44963 73.3016C2.45902 73.5041 2.4684 73.6783 2.48717 73.8431C2.50594 74.0738 2.5247 74.2856 2.53878 74.4928C2.57631 74.9353 2.61854 75.3355 2.65138 75.8345C3.00796 75.8157 3.40208 75.7969 3.86657 75.7922C4.09178 75.7922 4.33107 75.7922 4.5985 75.7875C4.79087 75.7875 5.002 75.7922 5.2319 75.7969C4.46713 75.8957 5.43366 75.8769 6.32042 75.8769C5.7527 75.891 5.5791 75.9287 6.74268 75.9946C6.9069 75.9617 7.16026 75.9428 7.39485 75.9287C7.40424 75.9381 7.45115 75.9428 7.42769 75.9522C8.90563 75.9193 8.64758 75.8863 7.96257 75.8722C7.99541 75.8581 7.93911 75.8392 7.72797 75.811C9.26221 75.9381 12.0023 75.8016 12.1899 75.9711C16.6331 75.9334 19.8095 75.7545 23.5067 75.6886C23.9243 75.778 23.0563 75.8534 21.9865 75.8863L24.6093 75.8534C24.5858 75.9805 23.1032 75.924 22.2962 75.9522C25.421 76.1547 28.7334 75.7498 32.3978 75.9334L33.1578 75.8345L33.3784 75.8534C33.369 75.8016 34.1901 75.731 34.7296 75.7121C35.2457 75.8204 34.6921 75.9664 36.5078 75.9569C37.9435 76.0652 40.5804 75.9052 42.4571 75.844C41.4437 75.8251 41.7721 75.7639 42.2084 75.7263C43.114 75.7263 43.6348 75.8345 44.3385 75.7828L44.4277 75.9334C44.0711 75.7922 46.7971 75.7828 47.1302 75.7215C47.6463 75.8298 45.7226 75.8157 45.4974 75.9005C49.1336 75.8863 47.3132 75.8957 50.9494 75.8816C52.8871 75.7686 50.5975 75.7404 51.5265 75.6133C53.239 75.585 54.9093 75.4814 56.8752 75.5709L56.2512 75.4391C59.4698 75.3355 61.3935 75.3543 63.5611 75.4861C87.5271 74.4127 68.6095 74.022 68.6095 74.022C59.1742 73.7301 54.3041 74.1161 43.0717 74.215L43.053 74.2009Z" fill="#2C282F"></path></g><path d="M56.0674 44.5418H54.7579V29.088C54.7579 26.9561 53.0016 25.2246 50.8394 25.2246H27.3384C25.1761 25.2246 23.4199 26.9561 23.4199 29.088V44.5418H22.1103C21.3896 44.5418 20.8008 45.1223 20.8008 45.8329V48.4052C20.8008 50.5371 22.557 52.2687 24.7193 52.2687H53.4585C55.6208 52.2687 57.377 50.5371 57.377 48.4052V45.8329C57.377 45.1223 56.7882 44.5418 56.0674 44.5418ZM26.0289 29.088C26.0289 28.3774 26.6176 27.7969 27.3384 27.7969H50.8495C51.5703 27.7969 52.1591 28.3774 52.1591 29.088V44.5418H26.0289V29.088ZM54.768 48.4052C54.768 49.1158 54.1792 49.6964 53.4585 49.6964H24.7193C23.9985 49.6964 23.4097 49.1158 23.4097 48.4052V47.1141H54.7579V48.4052H54.768ZM43.0125 31.6603C43.0125 32.371 42.4237 32.9515 41.7029 32.9515H36.4748C35.7541 32.9515 35.1653 32.371 35.1653 31.6603C35.1653 30.9497 35.7541 30.3692 36.4748 30.3692H41.7029C42.4237 30.3692 43.0125 30.9497 43.0125 31.6603Z" fill="#1C1A1F"></path><path d="M42.5136 31.7012C42.5136 31.7012 42.4832 31.7913 42.4629 31.8513C42.4933 31.8113 42.5136 31.7712 42.5136 31.7012Z" fill="#1C1A1F"></path><path d="M38.8676 32.3709V32.4109C38.6341 32.4109 38.7864 32.3609 38.5834 32.3709C38.5021 32.4309 38.2382 32.3709 38.1671 32.3909C38.1671 32.3909 38.0656 32.3909 38.0758 32.3709C38.0453 32.4009 37.9743 32.3709 37.9032 32.3809C37.8829 32.3809 37.9235 32.3809 37.9336 32.4009H37.7915C37.7306 32.4009 37.7205 32.3809 37.7915 32.3809C37.5783 32.3809 37.0302 32.3709 36.4921 32.3609C36.1571 32.3609 35.9439 32.1206 35.883 32.0306C35.883 32.0706 35.9338 32.1106 35.9236 32.1607C35.8627 32.1307 35.8729 32.0806 35.8424 32.0806C35.8729 32.0306 35.7815 31.9605 35.8221 31.8904H35.7815L35.7917 31.8504C35.7206 31.6002 35.7511 31.7904 35.7612 31.5702C35.7815 31.44 35.7612 31.36 35.8221 31.2999C35.8221 31.2999 35.7815 31.3299 35.7917 31.2999C35.812 31.2999 35.8323 31.2098 35.8627 31.2098C35.883 31.1798 35.9642 31.0997 35.9135 31.0997C35.9439 31.0997 36.0251 31.0397 35.9947 31.0897C36.0251 31.0697 36.0556 31.0497 36.0759 31.0397C36.0658 31.0397 36.0455 31.0397 36.0353 31.0597C36.1368 30.9896 36.2079 30.9896 36.2688 30.9396C36.2485 30.9396 36.2383 30.9396 36.218 30.9396C36.2891 30.9096 36.35 30.8996 36.3805 30.9396L36.3094 30.9596C36.3703 30.9496 36.4109 30.9396 36.4617 30.9396C36.5124 30.9396 36.5835 30.9396 36.6952 30.9196H36.6342C36.8474 30.8795 37.9743 30.8495 38.1773 30.8095L38.0859 30.7795L38.2585 30.7594C38.2585 30.7594 38.1773 30.8495 38.157 30.8395C38.5224 30.8395 40.4309 30.8195 40.7659 30.8395C40.8979 30.8595 40.7862 30.8896 40.7862 30.8896C40.9487 30.8795 40.8573 30.8595 40.9994 30.8595C41.04 30.8595 40.9994 30.8795 40.969 30.8896C41.0299 30.8896 41.0908 30.8896 41.0908 30.8896C41.0096 30.8795 41.0502 30.8395 41.0096 30.8195H41.1923V30.8395C41.2329 30.8395 41.2938 30.7795 41.4766 30.7895C41.639 30.7895 41.771 30.7895 41.8725 30.8095C41.9841 30.8295 42.0857 30.8695 42.177 30.9296C42.177 30.9296 42.1263 30.9296 42.0857 30.9096C42.106 30.9196 42.1466 30.9396 42.1669 30.9596C42.1364 30.9096 42.2481 30.9896 42.2176 30.9596C42.38 30.9997 42.4816 31.1998 42.5628 31.3099C42.5831 31.3099 42.8166 31.2899 43.0501 31.34C43.2835 31.39 43.517 31.5101 43.5475 31.5001C43.5475 31.5802 43.5475 31.6702 43.5475 31.6903C43.5576 31.6702 43.5678 31.5001 43.5373 31.41H43.5069C43.4561 31.1998 43.517 31.35 43.4663 31.1598C43.4866 31.1398 43.5475 31.3199 43.5678 31.4801C43.5576 31.3299 43.5272 31.1798 43.4866 31.1298C43.446 30.9997 43.5272 31.1298 43.4764 30.9696C43.4257 30.8595 43.3241 30.7294 43.2632 30.6093C43.0805 30.319 42.8978 30.249 42.644 30.0688H42.6744C42.5932 30.0088 42.38 29.9287 42.1973 29.8686C42.2481 29.8887 42.2887 29.9187 42.177 29.8887C41.9638 29.8186 41.7811 29.8286 41.6593 29.8086L41.5476 29.8286C41.0096 29.8286 38.8371 29.8586 38.289 29.8586H38.3093C37.8829 29.8586 37.2535 29.8586 36.6139 29.8686C36.2789 29.8486 35.7409 29.9587 35.4262 30.2089C35.0912 30.4492 34.878 30.7694 34.7867 31.0497C34.6953 31.2098 34.6445 31.4701 34.6445 31.6602C34.6547 31.5501 34.675 31.5902 34.675 31.6702C34.7359 32.2408 34.6547 31.7203 34.807 32.2708C34.8679 32.4209 34.9998 32.6811 35.2435 32.9214C35.4871 33.1616 35.8526 33.3618 36.2586 33.4018C36.8373 33.4218 37.4159 33.4318 37.7103 33.4418C37.9438 33.4018 38.2382 33.4418 38.4717 33.4118H38.4514C38.8168 33.4118 40.0147 33.4218 40.3903 33.4318H40.3497C40.6035 33.4018 40.5629 33.4418 40.7659 33.4518C40.7355 33.4118 40.9588 33.3918 41.04 33.3818C41.1619 33.3818 41.4461 33.3517 41.6491 33.3417V33.3618C41.8217 33.3618 42.2684 33.2817 42.4004 33.2016C42.7455 33.0815 43.2226 32.6912 43.3445 32.2007C43.3952 32.1106 43.446 32.0106 43.4764 31.9005V31.8504C43.4764 31.8504 43.2937 31.7003 43.0805 31.6702C42.8673 31.6302 42.6338 31.6903 42.5323 31.8204H42.512C42.512 31.8204 42.512 31.8504 42.5019 31.8704C42.4714 31.9405 42.4816 31.9805 42.4613 31.9605C42.4714 31.9305 42.4917 31.9005 42.4917 31.8704C42.4714 31.9405 42.4714 31.8904 42.4613 31.8604C42.4613 31.8904 42.441 31.9105 42.4308 31.9305C42.4308 31.9505 42.441 31.9305 42.4511 31.9205C42.4511 31.9605 42.4511 32.0206 42.4105 32.0506C42.3699 32.1106 42.38 32.0406 42.3293 32.1006C42.1973 32.2708 41.9943 32.3809 41.7811 32.3909C41.4156 32.3909 41.0806 32.3909 40.7253 32.3909C40.705 32.3909 40.7253 32.3909 40.7456 32.3809C40.4817 32.3809 40.37 32.3809 40.1061 32.4009C40.0452 32.4009 40.035 32.3809 40.0147 32.3709C40.035 32.3709 39.7508 32.3809 39.4564 32.3909C39.162 32.3909 38.9082 32.3909 38.8574 32.3909L38.8676 32.3709Z" fill="#1C1A1F"></path><path d="M54.2592 48.5566C54.2186 48.6767 54.1273 48.8769 53.9648 48.997C54.0968 48.917 54.2186 48.7768 54.2592 48.5566Z" fill="#1C1A1F"></path><path d="M53.9531 48.9961V49.0059L53.9629 48.9961H53.9531Z" fill="#1C1A1F"></path><path d="M38.0372 49.1057L37.9865 49.1458C37.1845 49.1458 37.753 49.0957 37.0119 49.1057C36.7277 49.1658 35.7836 49.1057 35.5298 49.1257C35.5298 49.1257 35.1745 49.1257 35.1948 49.1057C35.0831 49.1358 34.8192 49.1057 34.5958 49.1257C34.5146 49.1257 34.6567 49.1258 34.7176 49.1458H34.1898C33.9867 49.1458 33.936 49.1257 34.1593 49.1257C32.7787 49.1257 26.2614 49.1057 24.7589 49.1057C24.9518 49.1257 25.3985 49.1057 25.5711 49.1458C25.1853 49.1658 25.0026 49.1458 24.83 49.1558C24.7183 49.1258 24.6168 49.1258 24.495 49.0857C24.3732 49.0457 24.2615 48.9556 24.2209 48.8755L24.16 48.8555C24.16 48.8555 24.1295 48.7955 24.1194 48.7554C23.9976 48.5352 24.0077 48.4652 23.9976 48.295C23.9976 48.1549 23.9976 48.1149 23.9976 48.0748C23.9976 48.0448 23.9976 48.0048 23.9976 47.8947C23.9976 47.8546 23.9976 47.7946 23.9976 47.7045C23.9976 47.7045 23.9976 47.7045 23.9976 47.6945L24.0179 47.6845C24.1498 47.6845 24.2717 47.6845 24.3833 47.6745C24.6473 47.6745 24.8604 47.6645 25.0939 47.6745C25.0229 47.6745 24.83 47.6544 25.0533 47.6444C25.0939 47.6745 25.6624 47.6244 25.7741 47.6444C25.9974 47.6444 26.7182 47.6444 26.4745 47.6044C26.5964 47.6244 27.2461 47.6344 26.8603 47.6444C27.0735 47.6444 27.2867 47.6444 27.4491 47.6444H27.175C27.9059 47.6244 28.312 47.6544 28.7891 47.6244H28.515C28.9515 47.6044 29.317 47.6044 29.4896 47.6444H29.0429C29.7738 47.6544 30.2103 47.6444 30.8194 47.6344H30.6062C31.3778 47.5944 35.4181 47.5644 36.1389 47.5243L35.814 47.4943L36.4231 47.4743C36.3521 47.4743 36.1287 47.5644 36.0678 47.5544C37.3774 47.5544 44.1485 47.5544 45.4174 47.5544C45.9047 47.5744 45.5088 47.5944 45.4986 47.6044C46.0976 47.5944 45.7524 47.5744 46.26 47.5744C46.4021 47.5744 46.2296 47.5944 46.1585 47.6044C46.3818 47.6044 46.5849 47.6044 46.6052 47.6044C46.3311 47.5944 46.4427 47.5544 46.3311 47.5343H46.9808L46.9503 47.5644C47.0924 47.5644 47.3158 47.5043 47.9553 47.5143C49.0517 47.5143 50.1988 47.5143 51.2851 47.5143C51.2647 47.5243 51.0414 47.5343 50.8079 47.5443C50.9501 47.5443 51.1734 47.5443 51.3054 47.5443C51.0414 47.5243 51.7622 47.5243 51.5591 47.5143C52.351 47.4643 53.3763 47.5143 54.0869 47.4743C54.1783 47.4543 54.2189 47.2841 54.8077 47.0939C54.9193 47.164 55.0513 47.3742 55.1427 47.6144C55.2442 47.8446 55.3152 47.8947 55.3254 47.9147C55.3254 48.1149 55.3254 48.295 55.3254 48.4051C55.3355 48.3451 55.3457 47.9447 55.3355 47.6945L55.3051 47.6244C55.2949 46.7336 55.3254 47.3041 55.3254 46.5935C55.2949 46.5935 55.2442 46.5935 55.1833 46.5935C55.1833 46.5935 55.234 46.5835 55.3457 46.5735C55.3457 46.9838 55.3558 47.4342 55.366 47.8947C55.366 47.4042 55.366 46.9838 55.366 46.5535C55.3051 46.5535 55.234 46.5535 55.1325 46.5635C54.4625 46.5535 55.234 46.5334 54.4016 46.5234C54.229 46.5234 53.9955 46.5334 53.7925 46.5435C53.6098 46.5435 53.427 46.5435 53.2545 46.5435C52.4119 46.5134 51.9754 46.5735 51.2038 46.5435H51.2851C50.8993 46.5334 50.5541 46.5334 49.9958 46.5234C50.1379 46.5234 50.2597 46.5435 49.9653 46.5535C49.3562 46.5535 49.1532 46.5435 48.605 46.5334L48.2091 46.5535C46.2499 46.5535 38.5143 46.5835 36.5551 46.5835H36.6363C33.6416 46.5835 27.5608 46.6135 24.3935 46.6235C24.1904 46.6235 24.0179 46.6235 23.8453 46.6135C23.5306 46.6135 23.2362 46.6135 22.9316 46.6135C22.9316 47.0339 22.9316 47.4342 22.9316 47.8046C22.9316 47.7345 22.9316 47.6745 22.9316 47.6144C22.9316 47.5644 22.9316 47.5544 22.9316 47.5644C22.9316 47.5944 22.9316 47.7545 22.9316 47.8346C22.9316 48.225 22.9316 48.3751 22.9316 48.5452C22.9418 48.6854 22.9621 48.7054 22.9621 48.7254C22.9722 48.7654 22.9824 48.8155 23.0129 48.9056C23.0636 49.0357 23.1347 49.3159 23.5001 49.6862C23.7133 49.8864 24.0788 50.1166 24.566 50.1567C25.0026 50.1667 25.3579 50.1567 25.835 50.1567C26.7486 50.1567 27.8044 50.1567 28.8703 50.1567C30.9717 50.1667 33.0528 50.1767 33.8649 50.1867C34.7075 50.1467 35.7633 50.1867 36.5957 50.1567H36.5145C37.4484 50.1567 42.4126 50.1667 43.4683 50.1767H43.3262C44.2297 50.1467 44.1079 50.1867 44.8185 50.1967C44.7271 50.1567 45.4986 50.1366 45.793 50.1266H45.7829C46.2093 50.1266 47.2853 50.1066 47.9655 50.0866L47.935 50.1066C48.5441 50.0866 49.7014 50.0966 50.1379 50.0866C50.6354 50.0866 51.2851 50.1066 51.9652 50.1066H53.0108H53.559C53.7925 50.0966 54.0158 50.0366 54.2087 49.9365C54.564 49.7963 54.8686 49.5261 55.0716 49.1858C55.0919 49.1358 55.1224 49.0857 55.1325 49.0257C55.1528 49.0257 55.0817 48.5152 54.8381 48.3951C54.7264 48.325 54.6249 48.335 54.5234 48.4351C54.4219 48.5252 54.3407 48.6954 54.1377 48.9056V48.8755C54.0869 48.9356 54.0361 48.9856 53.9752 49.0357C53.7519 49.1858 53.6301 49.2058 53.6402 49.1858C53.7519 49.1558 53.8636 49.1057 53.9651 49.0357C53.7417 49.1758 53.894 49.0657 53.9651 48.9956C53.8839 49.0557 53.7823 49.1057 53.7011 49.1257C53.6605 49.1458 53.7417 49.1257 53.7722 49.1157C53.6402 49.1858 53.4981 49.2158 53.1732 49.1958C52.7367 49.1958 53.1428 49.1558 52.6352 49.1558C49.9653 49.1458 47.3665 49.1358 44.6865 49.1157C44.6256 49.1157 44.6967 49.1157 44.7779 49.1057C43.9556 49.1057 43.2653 49.1157 42.5039 49.1257C42.3009 49.1257 42.24 49.1057 42.1791 49.0957C42.24 49.0957 41.2147 49.1057 40.1691 49.1157C39.1234 49.1157 38.0778 49.1157 38.0271 49.1157L38.0372 49.1057Z" fill="#1C1A1F"></path><path d="M26.5449 28.8989C26.5957 28.7487 26.748 28.4985 26.9916 28.3984C26.8089 28.4585 26.616 28.6286 26.5449 28.8989Z" fill="#1C1A1F"></path><path d="M47.5379 28.3778L47.5988 28.3378C48.614 28.3378 47.8932 28.3878 48.8373 28.3778C49.2028 28.3178 50.4006 28.3778 50.7255 28.3578C50.7763 28.3578 51.03 28.3778 51.0097 28.4079C51.0909 28.3878 51.2635 28.4879 51.3752 28.608C51.426 28.6481 51.3549 28.568 51.3244 28.538C51.426 28.618 51.5072 28.7181 51.5478 28.8382C51.5782 28.9884 51.5681 29.0184 51.5275 28.8683C51.5478 28.9283 51.5681 28.9984 51.5579 29.0885C51.5579 29.2386 51.5579 29.4188 51.5579 29.6089C51.5579 29.9993 51.5579 30.4697 51.5579 30.9902C51.5579 32.0311 51.5579 33.2822 51.5478 34.5333C51.5478 37.0455 51.5478 39.5478 51.5478 40.4886C51.5681 40.2484 51.5478 39.6779 51.5884 39.4677C51.6087 39.9581 51.5884 40.1883 51.5985 40.3985C51.5478 40.5887 51.5884 41.4695 51.5275 41.8398L51.5579 41.9799L51.5376 42.2201C51.5579 43.2811 51.5579 43.4212 51.5579 43.5113C51.5579 43.5513 51.5579 43.6014 51.5579 43.7315C51.5579 43.7815 51.5579 43.8516 51.5579 43.9517C51.5579 43.9517 51.5579 43.9617 51.5579 43.9717C51.7305 43.9717 51.0503 43.9817 50.7458 43.9917C50.3905 43.9917 50.1062 44.0117 49.7915 43.9917C49.8829 43.9917 50.1265 44.0117 49.8423 44.0217C49.7915 43.9917 49.0708 44.0418 48.9287 44.0217C48.6444 44.0217 47.7206 44.0217 48.0353 44.0618C47.883 44.0418 47.0608 44.0317 47.548 44.0217C47.2739 44.0217 47.0506 44.0217 46.807 44.0217H47.1623C46.2283 44.0418 45.7208 44.0117 45.1117 44.0418H45.4568C44.8985 44.0618 44.4315 44.0618 44.2082 44.0217H44.7767C43.8529 44.0117 43.2945 44.0217 42.523 44.0317H42.7971C41.6297 44.0518 36.9802 44.1218 35.7519 44.1418L36.1681 44.1719L35.3864 44.1919C35.4778 44.1919 35.762 44.1018 35.8432 44.1118C34.6149 44.1118 29.4274 44.1118 26.4429 44.1218C26.4429 43.3612 26.4429 42.7806 26.4429 42.4904C26.4632 41.8798 26.4835 42.3803 26.4936 42.3903C26.4835 41.6396 26.4632 42.07 26.4632 41.4294C26.4632 41.2593 26.4835 41.4695 26.4936 41.5596C26.4936 41.2793 26.4936 41.0191 26.4936 40.9991C26.4835 41.3494 26.4429 41.1992 26.4226 41.3494V40.5286L26.453 40.5687C26.453 40.3885 26.3921 40.1083 26.4023 39.3076C26.4023 37.9363 26.4023 36.485 26.4023 35.1238C26.4124 35.1438 26.4226 35.4341 26.4327 35.7144C26.4327 35.5342 26.4327 35.2539 26.4327 35.0838C26.4124 35.4141 26.4124 34.5133 26.4023 34.7735C26.3515 33.7726 26.4023 32.4815 26.3617 31.6007C26.3109 31.5206 25.5089 29.719 25.448 29.719C25.448 29.4588 25.448 29.2086 25.448 29.0885C25.4379 29.1585 25.4277 29.699 25.4379 29.9793L25.4683 30.0293C25.4785 30.6899 25.448 30.1794 25.448 30.82C25.4176 30.85 25.4176 30.2595 25.4176 29.739C25.4176 30.2095 25.3973 30.6699 25.4176 30.86C25.4074 31.3004 25.3871 30.81 25.377 31.3405C25.377 31.7208 25.4074 32.2112 25.3973 32.6516C25.3668 33.7026 25.4379 34.2531 25.4074 35.2239V35.1238C25.3973 35.5642 25.3973 36.0747 25.3871 36.7453C25.3871 36.5751 25.4074 36.415 25.4176 36.7853C25.4176 37.526 25.4074 37.8663 25.3973 38.4868L25.4176 38.9873C25.4176 40.0182 25.4176 42.1801 25.4176 45.0927C28.8996 45.0927 33.549 45.0727 35.1935 45.0627H35.092C38.909 45.0627 46.6852 45.0326 50.6849 45.0226C50.9184 45.0226 51.1417 45.0326 51.365 45.0426C51.7813 45.0426 52.2076 45.0426 52.6137 45.0426C52.6137 44.6323 52.6137 44.2319 52.6137 43.8716C52.6137 44.0818 52.6035 44.272 52.5934 44.2019C52.5934 44.1819 52.5934 43.9217 52.5934 43.8316C52.5934 41.9199 52.5731 43.7015 52.5629 41.7697C52.5629 39.4977 52.5832 31.0502 52.5832 29.0284C52.5629 28.2978 51.9741 27.5171 51.1417 27.3669C50.6849 27.2969 50.4717 27.3469 50.157 27.3369C49.8728 27.3369 49.5987 27.3369 49.3246 27.3369H49.4261C48.2587 27.3369 41.9038 27.3269 40.5637 27.3169H40.7363C39.5892 27.3469 39.7415 27.3069 38.838 27.2969C38.9598 27.3369 37.9751 27.3569 37.5995 27.3669H37.6096C37.0614 27.3669 35.7113 27.387 34.8281 27.407L34.8687 27.387C34.087 27.407 32.6252 27.397 32.0669 27.407C30.7573 27.407 28.8691 27.3469 27.0418 27.407C26.5545 27.447 26.0876 27.7072 25.783 28.1076C25.7424 28.1676 25.7018 28.2277 25.6815 28.2978C25.651 28.2978 25.651 28.9383 25.8947 29.0885C26.0064 29.1685 26.1079 29.1685 26.2094 29.0384C26.3109 28.9283 26.4023 28.6981 26.6967 28.4779V28.508C26.7576 28.4379 26.8388 28.3878 26.92 28.3478C27.0824 28.2878 27.1839 28.2777 27.2956 28.2777C27.4174 28.2777 27.4682 28.2777 27.458 28.2777C27.1738 28.2777 27.1027 28.2777 26.9301 28.3378C27.255 28.2477 27.0215 28.3178 26.92 28.3778C27.052 28.3178 27.1535 28.3078 27.2956 28.3178C27.3971 28.3178 27.2144 28.3178 27.1839 28.3078C27.3768 28.2878 27.8539 28.2777 28.1788 28.2878C28.727 28.2878 28.2092 28.3278 28.859 28.3278C32.2597 28.3378 35.559 28.3478 38.9801 28.3678C39.0613 28.3678 38.9699 28.3678 38.8684 28.3778C39.914 28.3778 40.8074 28.3678 41.7616 28.3578C42.0256 28.3578 42.0966 28.3778 42.1677 28.3878C42.0865 28.3878 43.3859 28.3778 44.7259 28.3678C46.0558 28.3678 47.3958 28.3678 47.4567 28.3678L47.5379 28.3778Z" fill="#1C1A1F"></path><path d="M55.6373 44.0627C55.3226 44.0527 55.3328 44.0427 55.282 44.0427V43.9827V43.8125C55.282 43.9726 55.2719 43.9626 55.2617 43.9827V44.0527H55.3226C55.414 44.0527 55.5155 44.0527 55.617 44.0527L55.6373 44.0627Z" fill="#1C1A1F"></path><path d="M56.3203 45.1523C56.4015 45.1824 56.4827 45.2224 56.564 45.2925C56.4929 45.2324 56.4117 45.1824 56.3203 45.1523Z" fill="#1C1A1F"></path><path d="M42.5424 24.6448L42.451 24.6848C41.0095 24.6848 42.0348 24.6348 40.7049 24.6448C40.1872 24.7048 38.4919 24.6448 38.035 24.6648C38.035 24.6648 37.3955 24.6648 37.4361 24.6448C37.2331 24.6748 36.7661 24.6448 36.36 24.6648C36.2078 24.6648 36.4717 24.6648 36.5834 24.6848H35.6393C35.2738 24.6848 35.1824 24.6648 35.5784 24.6648C34.3399 24.6648 30.7665 24.6648 27.1728 24.6448C26.1374 24.6648 25.1222 25.0852 24.371 25.7257C23.6096 26.3663 23.1325 27.2371 22.9295 28.0778C22.8279 28.4882 22.8076 28.9386 22.8076 29.2689C22.8076 29.5992 22.8076 29.9195 22.8076 30.1997C22.8076 30.7702 22.8076 31.2406 22.8076 31.5709C22.8279 31.2406 22.8076 30.4299 22.8483 30.1196C22.8686 30.8103 22.8483 31.1405 22.8584 31.4408C22.8076 31.701 22.8483 32.9622 22.7873 33.4826L22.8178 33.6828L22.7975 34.0231C22.8279 37.0558 22.8178 34.7137 22.7975 37.4061C22.7975 38.9675 22.8483 39.7082 22.8279 40.5689C22.8279 40.4388 22.8483 40.0985 22.8584 40.4989C22.8279 40.5689 22.8787 41.5698 22.8584 41.77C22.8584 42.1704 22.8584 43.4415 22.899 43.0111C22.8787 43.2313 22.8686 44.3723 22.8584 43.6917C22.8584 43.8018 22.8584 43.9119 22.8584 44.002H22.8381H22.8686V43.972V44.012C22.7772 44.012 22.7061 44.012 22.6249 44.012C22.3711 44.012 22.2189 44.002 21.9245 44.012C21.356 44.062 20.8687 44.3623 20.5743 44.8227C20.7063 44.6425 20.8687 44.4824 21.0616 44.3623C20.6149 44.6726 20.3713 45.153 20.3104 45.5634C20.2799 45.7836 20.29 45.9337 20.2799 46.0338C20.2799 46.1239 20.2697 46.2139 20.2596 46.324C20.2596 46.0638 20.219 45.8236 20.3002 45.4032C20.2088 45.9137 20.2697 46.1239 20.2494 46.4141C20.2494 46.6844 20.2494 46.9346 20.2494 47.1848C20.2494 47.6953 20.2494 48.1056 20.2799 48.7162C20.2799 48.576 20.2596 48.4159 20.2697 48.2958C20.2799 48.6461 20.3002 49.4969 20.7773 50.3877C21.2341 51.2784 22.1681 52.1592 23.3254 52.5196C23.8837 52.7097 24.5436 52.7498 25.041 52.7297C25.5486 52.7297 26.0359 52.7297 26.4825 52.7197C27.3353 52.7097 28.0053 52.6897 28.3809 52.6897L27.7921 52.6597L28.8885 52.6397C28.7565 52.6397 28.3606 52.7297 28.2489 52.7197C30.6041 52.7197 42.8571 52.7197 45.0701 52.7197C45.9533 52.7397 45.2325 52.7598 45.2224 52.7698C46.2883 52.7598 45.6893 52.7397 46.5928 52.7397C46.8365 52.7397 46.5421 52.7598 46.4 52.7698C46.7959 52.7698 47.1715 52.7698 47.2019 52.7698C46.7045 52.7598 46.9177 52.7197 46.7045 52.6997H47.8719L47.8212 52.7297C48.0851 52.7297 48.481 52.6697 49.6282 52.6797C50.6027 52.6797 51.6077 52.6797 52.6229 52.6797C53.1203 52.6797 53.638 52.7097 54.2065 52.6096C54.7547 52.5196 55.2725 52.3194 55.7293 52.0391C55.709 52.0692 55.3334 52.3194 54.8968 52.4695C55.1709 52.3894 55.5669 52.1792 55.8003 52.0491C55.5669 52.1692 55.7699 52.0591 55.9628 51.919C56.1556 51.7789 56.3485 51.6188 56.1861 51.7389C56.785 51.2284 57.3231 50.4877 57.5667 49.657C57.6987 49.2466 57.7393 48.8163 57.7494 48.4159C57.7494 48.0656 57.7494 47.7353 57.7393 47.395C57.719 47.3249 57.5058 46.6744 57.2926 46.0238C57.1099 45.3232 56.5414 45.2631 56.5617 45.2931C56.3891 45.143 56.1455 45.113 56.0846 45.113C56.115 45.113 56.247 45.123 56.379 45.183C56.511 45.2431 56.6429 45.3532 56.714 45.4533L56.7647 45.4733C56.8967 45.7235 56.8561 45.7635 56.8663 45.7936C56.8663 45.8136 56.8663 45.8236 56.8663 45.8736C56.8663 45.9637 56.8663 46.0838 56.8663 46.304C56.8561 46.3341 56.846 46.1139 56.8358 45.8536C56.8358 45.6835 56.7444 45.4733 56.582 45.3332C56.7241 45.4633 56.8053 45.6334 56.8155 45.7936C56.8155 45.9137 56.8155 46.0138 56.8155 46.1038C56.8155 46.2139 56.8155 46.304 56.8256 46.3741C56.8155 46.9946 56.7952 46.304 56.785 47.0547C56.785 47.3149 56.7952 47.6352 56.8053 47.9455C56.8053 48.1056 56.8053 48.2658 56.8053 48.4259C56.8053 48.566 56.8053 48.6962 56.7749 48.8263C56.6734 49.4368 56.4805 49.8972 56.2267 50.2876C55.9628 50.6779 55.6278 51.0182 55.1202 51.2985L55.2217 51.2284C54.8664 51.4486 54.1253 51.7689 53.3132 51.7088C53.5568 51.7088 53.7599 51.7288 53.2523 51.7389C52.2067 51.7389 51.6382 51.7288 50.8159 51.7188L50.1053 51.7389C46.5827 51.7389 32.675 51.7689 29.1422 51.7689H29.2844C28.2895 51.7689 27.1018 51.7689 25.8024 51.7689C25.4775 51.7689 25.1425 51.7689 24.7974 51.7689C24.4827 51.7689 24.1984 51.7389 23.8939 51.6588C23.3051 51.5187 22.7366 51.1884 22.2899 50.738C21.8432 50.2776 21.5285 49.687 21.4067 49.0565C21.3052 48.4659 21.356 47.6452 21.3458 46.9046C21.3458 46.5342 21.3458 46.1739 21.3458 45.8136C21.3458 45.5934 21.4676 45.3732 21.6402 45.2431C21.7316 45.173 21.8331 45.123 21.9346 45.103C22.0361 45.0729 22.1478 45.0829 22.3508 45.0829C22.8889 45.0829 23.4167 45.0829 23.9446 45.0829C23.9446 42.881 23.9243 40.8892 23.9243 39.2978C23.9446 38.447 23.9446 37.276 23.9548 36.3952C23.9446 36.8857 23.9243 36.7155 23.9243 36.3352C23.9243 33.6328 23.904 36.155 23.8939 33.4226C23.8939 32.6319 23.8939 31.2907 23.8939 29.6792C23.8939 29.2589 23.8736 28.8685 23.9548 28.5082C24.0258 28.1279 24.168 27.7575 24.371 27.4072C24.7771 26.7166 25.4674 26.1461 26.2592 25.8859C26.6653 25.7558 27.0612 25.7057 27.5078 25.7057C27.9748 25.7057 28.4418 25.7057 28.8986 25.7057C29.8122 25.7057 30.6751 25.7057 31.4771 25.7057C33.0709 25.7057 34.3602 25.7157 35.0708 25.7257C36.7356 25.7157 38.4411 25.7057 39.974 25.6957H39.8217C40.6339 25.6957 43.2834 25.7057 45.9837 25.7057C47.3339 25.7057 48.6841 25.7057 49.821 25.7057C50.3794 25.7057 50.9276 25.6957 51.2727 25.7357C51.6483 25.7758 51.9326 25.8759 52.1255 25.9459L51.9224 25.8659C52.6026 26.0961 52.8361 26.3163 53.0493 26.4764C53.2421 26.6666 53.4249 26.8067 53.7294 27.2771C53.699 27.2071 53.8817 27.4072 54.0238 27.7175C54.1761 28.0278 54.2877 28.4381 54.3081 28.6684V28.6483C54.3487 28.9686 54.3385 29.6292 54.3588 30.3298C54.3588 31.0505 54.3791 31.8212 54.3791 32.4617L54.3588 32.4117C54.3588 33.5827 54.369 35.5445 54.3791 36.3151C54.3791 38.0967 54.3284 40.8492 54.3588 43.2313L54.3284 43.8919L54.2979 45.0229H54.6837H55.0897C55.0796 45.0229 55.4146 44.9728 55.5465 44.9028C55.7293 44.8327 55.9323 44.7326 56.0541 44.6325C56.1759 44.5325 56.2064 44.4224 56.0338 44.3323C55.9425 44.2822 55.8105 44.2422 55.5973 44.2022C55.3131 44.1621 55.2928 44.1321 55.2115 44.1121V44.042H55.2522V43.7618C55.2522 43.0111 55.2318 42.6708 55.2522 42.7208V43.7417C55.2522 42.9911 55.2725 43.5115 55.2826 43.8018C55.2826 43.5015 55.2826 43.2113 55.2928 42.931C55.2928 42.7809 55.2928 43.0411 55.2826 43.1612C55.2826 42.7609 55.2522 42.2004 55.2623 41.6999C55.2623 40.9292 55.3029 41.6499 55.3029 40.7491C55.3029 38.387 55.3232 36.0549 55.3334 33.7228C55.3334 32.5518 55.3334 31.3808 55.3334 30.2097C55.3232 29.6192 55.374 29.0587 55.2623 28.3481C55.1506 27.6775 54.8765 27.0269 54.4603 26.4764C54.3893 26.3763 54.4806 26.4864 54.5821 26.6165C53.638 25.2453 52.0239 24.5747 50.5824 24.6648C50.217 24.6648 50.1154 24.6448 50.0038 24.6348C49.5774 24.6348 42.6946 24.6548 42.5424 24.6548V24.6448Z" fill="#1C1A1F"></path><defs><clipPath id="clip0_65_386"><rect width="74" height="74" fill="white" transform="translate(2 2)"></rect></clipPath></defs></svg> 